<svg xmlns="http://www.w3.org/2000/svg" xmlns:xlink="http://www.w3.org/1999/xlink" width="67" height="67" viewBox="0 0 67 67">
  <defs>
    <radialGradient id="radial-gradient" cx="0.5" cy="0.5" r="0.5" gradientUnits="objectBoundingBox">
      <stop offset="0" stop-color="#fff"/>
      <stop offset="1" stop-color="#dbe0fc"/>
    </radialGradient>
    <clipPath id="clip-path">
      <circle id="Ellipse_442" data-name="Ellipse 442" cx="33.5" cy="33.5" r="33.5" fill="url(#radial-gradient)"/>
    </clipPath>
  </defs>
  <g id="Mask_Group_11607" data-name="Mask Group 11607" clip-path="url(#clip-path)">
    <circle id="Ellipse_441" data-name="Ellipse 441" cx="33.5" cy="33.5" r="33.5" fill="#244cb4"/>
    <circle id="Ellipse_443" data-name="Ellipse 443" cx="33.5" cy="33.5" r="33.5" fill="url(#radial-gradient)" style="mix-blend-mode: multiply;isolation: isolate"/>
    <g id="Group_11891" data-name="Group 11891" transform="translate(-10.552 76.003) rotate(-60)">
      <path id="Path_5860" data-name="Path 5860" d="M.685,84.3h0C.307,84.3,0,83.99,0,85.486V2.559C0,.307.307,0,.685,0H29.449a31.457,31.457,0,0,1,19.81,7.367A.674.674,0,0,0,50,7.443,136.629,136.629,0,0,1,64.28.984a.689.689,0,0,1,.889.4l3.148,8.327a.68.68,0,0,1-.394.877c-3.532,1.358-7.036,2.894-10.473,4.589a.687.687,0,0,0-.265.994,35.153,35.153,0,0,1,5.862,19.52c-.114,8.967-2.6,15.745-7.833,21.331-5.21,5.565-12.5,8.119-19.032,6.663-12.134-2.7-16.114-16.173-13.7-27.471,2.134-9.981,9.04-15.605,16.541-20.836a.685.685,0,0,0-.066-1.167,19.624,19.624,0,0,0-9.511-2.065H13.427a.685.685,0,0,0-.685.685V72.24A12.057,12.057,0,0,1,.685,84.3m47.4-63.224a.69.69,0,0,0-.933-.186c-6.838,4.334-12.988,9.819-14.626,17.476-1.186,5.542-.143,13.952,5.887,15.3,3.358.749,7.089-1.3,9.3-3.657,3.465-3.7,4.979-8.02,5.06-14.441a25.354,25.354,0,0,0-4.687-14.489" transform="translate(0 4.609)" fill="#fff" opacity="0.2"/>
      <path id="Path_5861" data-name="Path 5861" d="M7.649,0a6.894,6.894,0,0,1,5.387,4.522A6.725,6.725,0,0,1,5.751,13.3,6.829,6.829,0,0,1,.021,7.628c.048-.6-.065-1.286,0-1.87A6.89,6.89,0,0,1,4.17.447L5.7,0Zm.8.835c-1.127.222.739,1.655,1.257.808.027-.5-.843-.889-1.257-.808m-4.413.9c-.928.16-1.5,1.584-.127,1.218.763-.2,1.442-1.445.127-1.218m2.914,1.12c-.772.178-.885,1.578.132,1.634a.839.839,0,1,0-.132-1.634m4.184,1.057c-.258-.247-.8-.28-.953.079-.4.913.964,1.772,1.246.871a1.165,1.165,0,0,0-.293-.949m-6.8,2.419c.9-.794-.672-2.111-1.263-1a.818.818,0,0,0,1.263,1m-3.7.6a.58.58,0,0,0,.32.1c.751.013.706-1.719-.148-1.575-.5.085-.486,1.178-.172,1.477m7.737-.713C7.668,6.431,8,7.889,8.92,7.67c.89-.212.586-1.781-.546-1.447m3.915,2c.647.1.663-1.415.249-1.488C12,7,12.061,7.753,12.29,8.222M5.608,7.943c-1.006.227-.449,1.966.586,1.409a.768.768,0,0,0-.586-1.409m-3.141.747c-.8.238-.037,1.869.751,1.5.615-.287.04-1.736-.751-1.5m7.777.151c-.667.155-1.063,1.431-.015,1.333.98-.092,1.151-1.6.015-1.333M11.911,10.4c-.18-.181-1.154.824-1.046,1.121.117.124,1.18-.8,1.046-1.121m-4.582.241c-.83.17-1.1,1.45-.025,1.324,1-.117,1.279-1.581.025-1.324M4.077,11.909c-.458.441,1.1,1.254,1.369.729.22-.426-1-1.09-1.369-.729m4.842.655c-.117-.1-1.492.234-1.5.6.163.12,1.511-.186,1.5-.6" transform="translate(69.284 0)" fill="#abe400"/>
    </g>
    <path id="Path_5862" data-name="Path 5862" d="M1533.193,6301.926l7.455,7.455,16.7-16.7" transform="translate(-1511.17 -6267.818)" fill="none" stroke="#abe400" stroke-linecap="round" stroke-linejoin="round" stroke-width="5"/>
  </g>
</svg>
