<svg xmlns="http://www.w3.org/2000/svg" width="50" height="50" viewBox="0 0 50 50">
  <g id="Group_16514" data-name="Group 16514" transform="translate(6.734 -167.371)">
    <circle id="Ellipse_220" data-name="Ellipse 220" cx="25" cy="25" r="25" transform="translate(-6.734 167.371)" fill="#fff"/>
    <path id="Path_5816" data-name="Path 5816" d="M10.35,13.029l-3.2,3.2a2.076,2.076,0,0,1-2.883,0,2.034,2.034,0,0,1,0-2.883l3.2-3.2A.827.827,0,0,0,6.3,8.977l-3.2,3.2a3.69,3.69,0,0,0,5.214,5.214l3.2-3.2a.827.827,0,1,0-1.17-1.17Zm7.067-9.95a3.7,3.7,0,0,0-5.214,0L9,6.276a.827.827,0,0,0,1.17,1.17l3.2-3.2a2.076,2.076,0,0,1,2.883,0,2.034,2.034,0,0,1,0,2.883l-3.2,3.2a.827.827,0,1,0,1.17,1.17l3.2-3.2a3.7,3.7,0,0,0,0-5.214ZM7.648,12.848a.835.835,0,0,0,1.17,0L12.87,8.8a.827.827,0,0,0-1.17-1.17L7.648,11.679a.824.824,0,0,0,0,1.17Z" transform="translate(8.137 182.366)" fill="#244cb4"/>
  </g>
</svg>
