<svg id="Group_10498" data-name="Group 10498" xmlns="http://www.w3.org/2000/svg" width="18" height="18" viewBox="0 0 18 18">
  <path id="Path_5620" data-name="Path 5620" d="M9,0H9A8.994,8.994,0,0,0,1.713,14.275L.592,17.619l3.459-1.106A9,9,0,1,0,9,0Z" transform="translate(0)" fill="#4caf50"/>
  <path id="Path_5621" data-name="Path 5621" d="M15.017,13.413a2.834,2.834,0,0,1-1.968,1.442c-.524.114-1.209.2-3.513-.769A12.66,12.66,0,0,1,4.543,9.593,5.892,5.892,0,0,1,3.352,6.512,3.287,3.287,0,0,1,4.377,4.026,1.441,1.441,0,0,1,5.4,3.659c.124,0,.236.006.336.011.295.013.443.031.637.5.242.594.831,2.06.9,2.211a.618.618,0,0,1,.043.553A1.766,1.766,0,0,1,7,7.407c-.148.174-.288.306-.436.493a.486.486,0,0,0-.118.636A9.045,9.045,0,0,0,8.068,10.6a7.345,7.345,0,0,0,2.352,1.478.625.625,0,0,0,.707-.114,12.342,12.342,0,0,0,.784-1.057.554.554,0,0,1,.72-.222c.271.1,1.7.817,2,.967s.489.222.56.349A2.589,2.589,0,0,1,15.017,13.413Z" transform="translate(-0.207 -0.226)" fill="#fafafa"/>
</svg>
