<?xml version="1.0" encoding="UTF-8"?>
<!DOCTYPE svg PUBLIC "-//W3C//DTD SVG 1.1//EN" "http://www.w3.org/Graphics/SVG/1.1/DTD/svg11.dtd">
<!-- Creator: CorelDRAW -->
<svg xmlns="http://www.w3.org/2000/svg" xml:space="preserve" width="12.8064mm" height="16.7039mm" version="1.1" style="shape-rendering:geometricPrecision; text-rendering:geometricPrecision; image-rendering:optimizeQuality; fill-rule:evenodd; clip-rule:evenodd"
viewBox="0 0 2385.72 3111.79"
 xmlns:xlink="http://www.w3.org/1999/xlink"
 xmlns:xodm="http://www.corel.com/coreldraw/odm/2003">
 <defs>
  <style type="text/css">
   <![CDATA[
    .fil0 {fill:#1A1A1A}
    .fil2 {fill:#949494}
    .fil3 {fill:#9E9E9E}
    .fil4 {fill:#A3A3A3}
    .fil1 {fill:#FEFEFE}
   ]]>
  </style>
 </defs>
 <g id="Layer_x0020_1">
  <metadata id="CorelCorpID_0Corel-Layer"/>
  <g id="_105556598547680">
   <path class="fil0" d="M543.28 2606.36c-4.9,12.65 -188.4,192.66 -222.92,227 -9.91,9.85 -26.73,31.46 -43.44,33.22 -23.1,2.42 -38.28,-18.76 -29.17,-40 4.86,-11.31 189.25,-192.64 223.36,-226.59 9.22,-9.18 26.84,-31.5 42.83,-33.1 22.65,-2.27 37.95,17.27 29.34,39.48zm923.86 -1876.34l17.46 33.53c94.06,1.68 148.47,19.45 201.16,69.78 47.08,44.97 90.37,90.11 136.57,135.97 91.36,90.65 180.37,179.4 270.85,270.87 45.42,45.92 89.18,88.75 134.58,134.63 43.31,43.78 87.72,77.52 111.79,160.79 22.45,77.65 2.37,161.03 -33.68,217.07 -30.33,47.15 -510.61,516.42 -605.65,612.23 -22.3,22.47 -44.37,47.26 -68.89,68.95 -104.21,92.16 -298.38,68.95 -445.87,32.47 -161.53,-39.96 -233.27,-87.69 -372.69,9.18 -16.04,11.12 -24.72,21.16 -40.41,29.19 -8.03,-10.62 -16.77,-14.49 -22.43,-27.05 46.13,-29.25 82.12,-74.68 170.48,-91.28 75.49,-14.18 158.18,12.43 224.76,31.5 125.97,36.08 333.46,77.4 444.86,1.08 39.59,-27.11 496.26,-490.47 528.19,-522.45 43.54,-43.59 89.79,-86.36 131.06,-131.56 41.04,-44.97 74.07,-110.43 60.28,-196.15 -13.13,-81.65 -61.96,-123.94 -100.56,-162.11 -44.84,-44.36 -86.53,-87.04 -131.32,-131.32l-393.91 -393.97c-42.12,-42.01 -93.28,-83.31 -185.79,-81.65 13.34,72.88 19.24,123.18 -8.05,192.72 -22.71,57.9 -54.71,97 -91.95,127.98 -68.24,56.74 -163.62,82.04 -257.86,61.72 -34.52,-7.45 -53.93,-19.95 -81.56,-29.81 -56.32,51.03 -162.73,162.45 -223.29,222.86 -46.98,46.85 -132.25,122.04 -159.11,175.88 -62.35,124.98 1.53,356.77 34.18,474.46 34.07,122.78 25.48,203.47 -49.22,301.57 -8.33,10.94 -19.17,23.25 -24.83,34.54 -13.97,-4.27 -21.65,-13.8 -28.2,-24.5l45.51 -63.56c13.39,-21.01 27.35,-50.15 33.76,-77.87 15.61,-67.34 -3.76,-128 -20.25,-189.36 -45.19,-168.5 -106.86,-402.52 24.68,-541.57 55.72,-58.91 111.1,-108.09 168.95,-165.89 29.14,-29.14 150.52,-145.77 165.24,-170.03 -14.31,-6.15 -14.16,-13.88 -31,-20.34l-117.25 118.7c-56.73,56.89 -190.52,185.84 -234.43,238.32 -124.33,148.59 -44.24,424.48 -2.72,583.74 20.6,78.97 24.63,127.29 -12.74,195.18 -14.29,25.99 -29.62,47.91 -50.26,67.98 -13.54,13.17 -49.61,46.24 -58.53,60.82 2.7,23.21 15.26,17.7 -4.21,37.26l-87.13 86.94c-39.68,39.74 -76.83,76.96 -116.62,116.49 -39.7,39.48 -77.09,76.81 -116.49,116.58l-117.62 115.74c-22.95,7.02 -5.91,-27.74 -52.61,19.34 -43.24,43.59 -26.17,45.08 29.97,101.53l132.96 133.01c24.87,22.8 40.07,7.79 56.22,-8.81 44.24,-45.49 25.47,-22.08 21.33,-55.68l428.94 -429.68c41.75,-42.4 27.16,2.48 53.6,-18.33 11.89,-9.35 32.75,-32.58 44.39,-44.56 17.38,-17.85 25,-24.78 45.53,-39.81 143.39,-105.14 254.44,-0.15 483.84,24.94 109.97,12.03 209.58,12.82 294.49,-37.91 14.2,-8.49 40.29,-27.24 48.83,-36.44 84.59,-91.15 213.15,-214.05 303,-304.33l257.75 -257.72c14.96,-15.02 27.53,-27.65 42.64,-42.66 13.62,-13.54 31.63,-28.73 44.65,-43.95 51.14,-59.74 90.05,-160.04 65.87,-265.86 -24.16,-105.78 -88.3,-154.53 -141.04,-207.01 -115.98,-115.39 -228.71,-229.23 -344.71,-344.68 -57.88,-57.62 -113.34,-116.49 -172.43,-172.32 -29.68,-28.04 -56.93,-50.56 -105.27,-68.72 -32.43,-12.18 -111.55,-29.58 -147.77,-16.64z"/>
   <path class="fil0" d="M1186.73 1068.73c26.02,-5.4 59.5,1.12 73.16,16.56 22.13,25.04 -11.05,45.75 -34.15,50.37 -75.93,15.15 -119.56,-50.24 -39.01,-66.93zm237.52 -129.99c18.22,25.95 16.28,44.43 -0.35,73.04 -8.2,14.1 -32.4,44.91 -58.09,36.55 -36.44,-11.85 -6.43,-116.71 58.44,-109.6zm-437.64 2.74c40.98,-25.75 102.01,82.64 61.66,105.25 -40.24,22.58 -101.77,-80.05 -61.66,-105.25zm204.94 -116.49c79.51,-19.15 106.67,104.06 27.48,120.18 -83.07,16.93 -102.12,-102.2 -27.48,-120.18zm170.49 -99.05c37.87,-30.94 102.31,79.08 63.06,103.39 -29.17,18.07 -67.87,-30.37 -74.03,-65.22 -4.58,-25.93 1.55,-30.48 10.97,-38.17zm-339.14 -1.29c63.02,-28.6 37.52,86.07 -10.8,105.29 -34.84,13.84 -42.87,-24.7 -34.46,-50.89 8.33,-25.88 23.75,-44.62 45.27,-54.4zm162.39 -89.96c76.19,-15.56 116.51,49.89 42.98,66.39 -77.01,17.31 -121.67,-50.34 -42.98,-66.39zm-24.2 -25.32c-139.22,22.56 -260.17,154.17 -231.21,323.64 23.49,137.46 154.71,254.06 321.35,228.09 137.73,-21.46 257.14,-153.91 230.35,-320.57 -22.28,-138.58 -154.01,-258.14 -320.5,-231.17z"/>
   <path class="fil0" d="M921.14 1079.67l-0.3 -3.56 -614.31 -279.96 -42.64 125.82c17.6,10.49 414.13,99.57 492.03,119.06 48.92,12.24 116.62,31.56 165.22,38.64z"/>
   <path class="fil0" d="M1487.09 681.49l164.55 -662.21 -133.18 -19.28c-2.61,32.43 -35.36,650.73 -31.37,681.49z"/>
   <path class="fil0" d="M873.17 995.47l1.71 -5.09 -287.56 -286.48c-12.43,13.23 -27.29,35.88 -39.33,52.42 -11.87,16.3 -27.14,36.22 -38.32,54.27 7.54,7.25 31.73,17.87 42.87,23.55 92.72,47.39 237.19,123.19 320.63,161.33z"/>
   <path class="fil0" d="M1445.1 621.28c0.45,-0.78 1.23,-2.74 1.36,-2.31 0.15,0.45 1.01,-1.86 1.17,-2.5 0.13,-0.54 1.36,-8.89 1.38,-9.2l-20.7 -393.39c-17.42,-0.34 -118.16,21.44 -130.18,28.76l146.97 378.64z"/>
   <path class="fil1" d="M543.28 2606.36c8.61,-22.21 -6.69,-41.75 -29.34,-39.48 -15.98,1.6 -33.61,23.92 -42.83,33.1 -34.11,33.94 -218.5,215.28 -223.36,226.59 -9.11,21.24 6.07,42.42 29.17,40 16.71,-1.75 33.53,-23.36 43.44,-33.22 34.52,-34.33 218.02,-214.35 222.92,-227z"/>
   <path class="fil1" d="M1191.56 824.99c-74.65,17.98 -55.59,137.11 27.48,120.18 79.19,-16.11 52.03,-139.33 -27.48,-120.18z"/>
   <path class="fil1" d="M1185.3 634.69c-78.69,16.06 -34.04,83.7 42.98,66.39 73.53,-16.51 33.22,-81.95 -42.98,-66.39z"/>
   <path class="fil1" d="M1362.05 725.94c-9.43,7.69 -15.56,12.24 -10.97,38.17 6.17,34.86 44.86,83.29 74.03,65.22 39.25,-24.31 -25.19,-134.33 -63.06,-103.39z"/>
   <path class="fil1" d="M986.62 941.48c-40.11,25.21 21.42,127.83 61.66,105.25 40.35,-22.62 -20.68,-131 -61.66,-105.25z"/>
   <path class="fil1" d="M1186.73 1068.73c-80.55,16.69 -36.92,82.08 39.01,66.93 23.1,-4.62 56.28,-25.34 34.15,-50.37 -13.66,-15.44 -47.13,-21.96 -73.16,-16.56z"/>
   <path class="fil1" d="M1424.25 938.74c-64.87,-7.12 -94.88,97.75 -58.44,109.6 25.69,8.36 49.89,-22.45 58.09,-36.55 16.64,-28.61 18.57,-47.09 0.35,-73.04z"/>
   <path class="fil1" d="M1022.91 724.65c-21.52,9.78 -36.94,28.52 -45.27,54.4 -8.4,26.19 -0.37,64.74 34.46,50.89 48.32,-19.23 73.83,-133.89 10.8,-105.29z"/>
   <path class="fil2" d="M1445.1 621.28c3.78,7.04 -3.26,-3.3 2.31,4.04 3.22,4.23 2.81,3.47 5.09,6l-3.48 -24.05c-0.02,0.32 -1.25,8.66 -1.38,9.2 -0.17,0.63 -1.02,2.94 -1.17,2.5 -0.13,-0.43 -0.91,1.53 -1.36,2.31z"/>
   <path class="fil3" d="M874.88 990.38l-1.71 5.09c4.82,4.69 -12.16,6.91 9.99,4.21 -4.79,-7.69 -1.23,-3.39 -8.27,-9.3z"/>
   <path class="fil4" d="M920.84 1076.11l0.3 3.56c7.69,4.86 1.64,4.32 9.85,0.63 -5.42,-3.3 -5.18,-2.22 -10.15,-4.19z"/>
  </g>
 </g>
</svg>
