<svg xmlns="http://www.w3.org/2000/svg" width="37.301" height="26.716" viewBox="0 0 37.301 26.716">
  <g id="Group_12844" data-name="Group 12844" transform="translate(-1313.372 -253.475)">
    <g id="Group_12695" data-name="Group 12695" transform="translate(881 172.094)">
      <path id="Path_6300" data-name="Path 6300" d="M364.106,70.453a.585.585,0,0,0,.653.6,5.9,5.9,0,0,1,5.806,4.214,6.29,6.29,0,0,1-2.47,6.458,6.671,6.671,0,0,1-6.808.418,6.493,6.493,0,0,1-3.76-5.58.629.629,0,0,0-.628-.6h-.025a.627.627,0,0,0-.6.652,7.736,7.736,0,0,0,4.46,6.658,8.294,8.294,0,0,0,3.666.865,7.631,7.631,0,0,0,4.422-1.385,7.48,7.48,0,0,0,2.963-7.8,7.174,7.174,0,0,0-7.072-5.155.628.628,0,0,0-.6.652" transform="translate(91.168 17.86)" fill="#383838"/>
      <path id="Path_6301" data-name="Path 6301" d="M361.484,79.468a5.7,5.7,0,0,0,2.769.706,5.275,5.275,0,0,0,1.829-.315,3.923,3.923,0,0,0,2.39-2.367,4.17,4.17,0,0,0-.916-4.2,3.732,3.732,0,0,0-3.446-1.375,2.887,2.887,0,0,0-2.061,2.21.628.628,0,1,0,1.207.347c.22-.764.6-1.212,1.132-1.333a2.518,2.518,0,0,1,2.228.985,2.935,2.935,0,0,1,.674,2.941,2.673,2.673,0,0,1-1.645,1.613,4.366,4.366,0,0,1-3.54-.306,4.662,4.662,0,0,1-2.178-4.691.628.628,0,0,0-1.237-.222,5.892,5.892,0,0,0,2.794,6.006" transform="translate(91.766 18.387)" fill="#383838"/>
      <path id="Path_6302" data-name="Path 6302" d="M360.92,72.087a.633.633,0,0,0,.185.028.627.627,0,0,0,.6-.442l.1-.322a.628.628,0,1,0-1.2-.37l-.1.322a.627.627,0,0,0,.414.785" transform="translate(92.244 18.05)" fill="#383838"/>
      <path id="Path_6303" data-name="Path 6303" d="M380.939,90.078l-5.577.082c6.205-3.41,7.317-11.887,4.781-17.806-2.459-5.739-7.874-8.571-13.787-7.221a13.12,13.12,0,0,0-8.322,5.983,11.254,11.254,0,0,0-1.233,8.828,11.758,11.758,0,0,0,6.523,7.356l-10.681.049V86.256a.628.628,0,1,0-1.256,0v1.1l-.988.005V85.383a.628.628,0,1,0-1.256,0v1.981l-1.487.006V84.884a.628.628,0,1,0-1.256,0v2.492l-1.5.006a.629.629,0,0,0-.625.628v2.8a.627.627,0,0,0,.628.628h16.373c2.375,0,4.619,0,6.931.064.269.008.548.013.835.013s.6-.009.916-.021l11-.161a.628.628,0,0,0,.619-.637.614.614,0,0,0-.637-.619m-12.7.17c-2.328-.064-4.686-.064-7.032-.064H345.53V88.636l23.379-.108a.626.626,0,0,0,.313-.084,9.45,9.45,0,0,0,8.062-5.263c1.964-3.862,1.3-9.192-1.51-12.134a9.966,9.966,0,0,0-7.572-2.855.627.627,0,0,0-.617.638.642.642,0,0,0,.638.618,8.837,8.837,0,0,1,6.642,2.467c2.424,2.538,3.007,7.337,1.3,10.7a8.3,8.3,0,0,1-8.681,4.543,10.941,10.941,0,0,1-9.473-7.543,10.01,10.01,0,0,1,1.1-7.852,11.853,11.853,0,0,1,7.524-5.4c5.3-1.208,10.143,1.336,12.352,6.492,2.326,5.428,1.356,13.179-4.269,16.235a10.972,10.972,0,0,1-4.781,1.155l-.235,0a.349.349,0,0,0-.035.008c-.5.014-.978.01-1.427,0" transform="translate(88.098 16.582)" fill="#383838"/>
    </g>
  </g>
</svg>
