<svg xmlns="http://www.w3.org/2000/svg" width="21.601" height="37.261" viewBox="0 0 21.601 37.261">
  <g id="Group_12843" data-name="Group 12843" transform="translate(-1784.971 -252.158)">
    <path id="Path_6314" data-name="Path 6314" d="M720.85,63.791l19.068-.04c.593.082,1.443.689,1.345,1.34-.322,4.431.393,9.383,0,13.75-.085.944-.411,1.257-1.341,1.343-6.015.549-12.852-.435-18.954,0A1.183,1.183,0,0,1,719.787,79l-.005-14.061c0-.465.641-1.046,1.068-1.143m3.78,1.915a2.158,2.158,0,0,0-3.166,2.93c1.978,2.169,5.1-1.012,3.166-2.93m4.892,3.049a2.157,2.157,0,1,0-3.049-3.051c-1.923,1.973,1.165,4.948,3.049,3.051m5.05-3.051a2.157,2.157,0,1,0-3.049,3.051c1.91,1.924,4.963-1.086,3.049-3.051m3.009-.648c-2.272.466-2.316,4.01.123,4.227,3.489.309,2.856-4.839-.123-4.227m-12.805,8.43c1.766-2.74-2.256-4.686-3.456-2.587-1.6,2.8,2.223,4.5,3.456,2.587m2.55-3.376c-2.087.54-1.77,4.275.736,4.209,3.165-.084,2.611-5.074-.736-4.209m5.047,0c-2.1.433-2.045,4.139.61,4.21,2.938.078,2.881-4.931-.61-4.21m6.928.344c-2.82-1.821-4.635,2.355-2.585,3.457a2.16,2.16,0,0,0,2.585-3.457M722.589,75c-3.154.566-1.266,5.741,1.61,3.82a2.1,2.1,0,0,0-1.61-3.82m6.932.49c-1.963-1.914-4.972,1.14-3.049,3.051a2.157,2.157,0,1,0,3.049-3.051m5.05,3.052c1.914-1.964-1.139-4.975-3.049-3.051a2.157,2.157,0,1,0,3.049,3.051M737.424,75c-2.541.457-1.718,4.754,1.031,4.188A2.157,2.157,0,0,0,737.424,75" transform="translate(1065.189 188.407)" fill="#383838"/>
    <path id="Path_6315" data-name="Path 6315" d="M736.8,77.583c.166.369-.908,1.263-1.026,1.263h-4.418l-.236.236v6.63c.474.325,1.736.908,1.736,1.579v8.525l.236.236h4.1c.53,0,1.262.824,1.026,1.42H721.809c-.236-.6.5-1.42,1.026-1.42h4.1l.236-.236V87.291c0-.671,1.262-1.253,1.736-1.579v-6.63l-.236-.236h-4.418c-.119,0-1.192-.894-1.026-1.263Z" transform="translate(1065.696 191.947)" fill="#383838"/>
  </g>
</svg>
