<svg xmlns="http://www.w3.org/2000/svg" width="21.941" height="39.887" viewBox="0 0 21.941 39.887">
  <g id="Group_12833" data-name="Group 12833" transform="translate(-1100.961 -172.094)">
    <path id="Path_6292" data-name="Path 6292" d="M193.868,18.311V.628A.63.63,0,0,0,193.24,0H175.771a.63.63,0,0,0-.628.628V39.259a.622.622,0,0,0,.628.628H193.24a.622.622,0,0,0,.628-.628V34.625h-1.256v4.006H176.4V1.256h16.214v16.7a4.241,4.241,0,0,1,1.256.352" transform="translate(925.818 172.094)" fill="#383838"/>
    <path id="Path_6293" data-name="Path 6293" d="M189.344,2.808a.622.622,0,0,1-.628.628H178.681a.622.622,0,0,1-.628-.628.63.63,0,0,1,.628-.628h10.035a.63.63,0,0,1,.628.628" transform="translate(926.563 172.652)" fill="#383838"/>
    <path id="Path_6294" data-name="Path 6294" d="M189.344,4.908a.622.622,0,0,1-.628.628H178.681a.622.622,0,0,1-.628-.628.63.63,0,0,1,.628-.628h10.035a.63.63,0,0,1,.628.628" transform="translate(926.563 173.189)" fill="#383838"/>
    <path id="Path_6295" data-name="Path 6295" d="M189.344,7.008a.622.622,0,0,1-.628.628H178.681a.628.628,0,0,1,0-1.256h10.035a.622.622,0,0,1,.628.628" transform="translate(926.563 173.727)" fill="#383838"/>
    <path id="Path_6296" data-name="Path 6296" d="M179.251,13.16a2.248,2.248,0,1,0,2.248,2.248,2.254,2.254,0,0,0-2.248-2.248m0,3.24a.992.992,0,1,1,.992-.992.994.994,0,0,1-.992.992" transform="translate(926.294 175.461)" fill="#383838"/>
    <path id="Path_6297" data-name="Path 6297" d="M194.688,22.352v4.383a2.433,2.433,0,0,1-2.424,2.424h-5.338a2.425,2.425,0,0,1-2.424-2.424V22.352a2.407,2.407,0,0,1,2.223-2.386V18.409a2.943,2.943,0,0,1,2.939-2.939,2.661,2.661,0,0,1,.553.05,2.764,2.764,0,0,1,1.256.59,2.9,2.9,0,0,1,1.118,2.3.925.925,0,0,1-.917.929c-.063,0-.138-.013-.2-.013a.943.943,0,0,1-.728-.917,1.071,1.071,0,0,0-.527-.917,1.054,1.054,0,0,0-.553-.163,1.091,1.091,0,0,0-1.093,1.08v1.52h3.692a2.433,2.433,0,0,1,2.424,2.424" transform="translate(928.214 176.052)" fill="#383838"/>
  </g>
</svg>
