<svg xmlns="http://www.w3.org/2000/svg" width="33.937" height="25.295" viewBox="0 0 33.937 25.295">
  <g id="Group_12835" data-name="Group 12835" transform="translate(-1315.868 -178.476)">
    <path id="Path_6299" data-name="Path 6299" d="M353.163,29.036c-.232,1.56-3.049,1.415-4.217,1.23-1.319-.211-1.528-.782-1.628-2.038-.219-2.789-.234-8.353.451-10.966.178-.678.487-1.321.641-2.006-1.4-.093-3.024-2.449-1.592-3.429.9-.617,2.176-.278,3.2-.4C351.362,9,351.435,5.491,354.855,5.2c4.458-.382,9.389.4,13.871-.117,1.707.3,3.185-.21,4.741.8s2.212,4.02,2.919,5.707c1-.26,3.6-.343,3.8,1.03a2.539,2.539,0,0,1-2.168,2.639c.221.613.477,1.236.641,1.87a45.632,45.632,0,0,1,.586,10.423c-.067.911-.261,2.2-1.224,2.577a7.391,7.391,0,0,1-3.99-.088,2.629,2.629,0,0,1-.765-1V26.524h-20.1c-.083.781.112,1.761,0,2.512M355.846,6.6c-1.383.149-2.007,1.358-2.528,2.5a40.851,40.851,0,0,0-2.048,5.289c-.313,1.277.565,1.119,1.549,1.284,7.324-.1,14.669.186,21.978-.167.648-.342.487-1.021.3-1.6a43.519,43.519,0,0,0-2.921-6.448,2.219,2.219,0,0,0-1.825-.892c-4.615-.4-9.825.278-14.5.04m15.378,13H355.2v2.783l.2.2h15.821Zm-21.275,3.213c1.585,1.538,4.137-.751,2.674-2.469-1.586-1.861-4.447.747-2.674,2.469m26.523-2.622a1.809,1.809,0,0,0-2.487,2.622c1.6,1.618,4.354-.927,2.487-2.622" transform="translate(969.606 173.394)" fill="#383838"/>
  </g>
</svg>
