<svg xmlns="http://www.w3.org/2000/svg" width="29.086" height="35.948" viewBox="0 0 29.086 35.948">
  <g id="Group_12842" data-name="Group 12842" transform="translate(-1526.275 -173.677)">
    <path id="Path_6305" data-name="Path 6305" d="M519.329,34.541c-.372,1.073-1.054,2.909-2.494,2.641a16.014,16.014,0,0,1-2.566-1.615c-1.3-1.191.4-2.837,1.311-3.618l4.651-6.983c.436-4.354-2.875-8.32-.443-12.58,1.825-3.2,4.45-6.269,6.376-9.441a4.582,4.582,0,0,1,6.041-.96c3.111,1.782,6.139,4.322,9.191,6.246,2.063,2.141,1.8,4.186.312,6.536-1.834,2.895-3.927,5.638-5.76,8.535a8.316,8.316,0,0,1-4.953,2.737c-1.751.354-5.7.485-6.988,1.584Zm1.541-21.762c-2.355,4,1.01,8.019.517,12.186a16.608,16.608,0,0,0,2.256,1.495c.267.035,1.052-.458,1.4-.574,3.641-1.2,7.6-.053,10.246-3.617,1.857-2.5,3.961-5.65,5.608-8.305,1.129-1.821,1.273-3.435-.377-5.006-2.98-1.8-5.852-4.26-8.848-5.981a3.517,3.517,0,0,0-4.453.45c-1.973,3.126-4.486,6.184-6.35,9.353m-.048,13.383-4.4,6.546c-.254.335-.632.53-.906.845-.181.207-.643.82-.53,1.065A13.79,13.79,0,0,0,517,36.027c.244.067.256.039.416-.124a6.837,6.837,0,0,0,.915-1.9l4.418-6.536a.248.248,0,0,0-.067-.288c-.064-.075-1.559-1.064-1.654-1.089a.164.164,0,0,0-.21.067" transform="translate(1012.479 172.416)" fill="#383838"/>
    <path id="Path_6316" data-name="Path 6316" d="M524.955,17.027c-6.079.554-6.027-8.806.112-8.117,4.642.519,4.588,7.687-.112,8.117m.858-6.732a2.989,2.989,0,0,0-3.974,4.069,2.985,2.985,0,1,0,3.974-4.069" transform="translate(1005.846 165.365)" fill="#383838"/>
    <path id="Path_6317" data-name="Path 6317" d="M523.9,11.748a.5.5,0,0,0-.267.963.5.5,0,0,0,.267-.963" transform="translate(1006.573 166.094)" fill="#383838"/>
    <path id="Path_6318" data-name="Path 6318" d="M525.132,10.953c-.6-.092-.612.942.019.942s.448-.87-.019-.942" transform="translate(1006.934 165.895)" fill="#383838"/>
    <path id="Path_6319" data-name="Path 6319" d="M525.4,12.613c-.411-.347-1.049.471-.536.808.455.3.938-.468.536-.808" transform="translate(1006.931 166.3)" fill="#383838"/>
    <path id="Path_6320" data-name="Path 6320" d="M523.822,13.38c-.825-.149-.663,1.172.192.769.432-.2.191-.7-.192-.769" transform="translate(1006.576 166.515)" fill="#383838"/>
    <path id="Path_6321" data-name="Path 6321" d="M523.894,10.235c-.414-.093-.742.173-.59.6.543.689,1.4-.414.59-.6" transform="translate(1006.572 165.708)" fill="#383838"/>
    <path id="Path_6322" data-name="Path 6322" d="M522.034,11.121c-.364.451.231,1.148.625.585.428-.61-.3-.993-.625-.585" transform="translate(1006.227 165.896)" fill="#383838"/>
    <path id="Path_6323" data-name="Path 6323" d="M522.038,12.615c-.4.36.279,1.177.649.8.388-.4-.293-1.119-.649-.8" transform="translate(1006.226 166.302)" fill="#383838"/>
  </g>
</svg>
