<svg xmlns="http://www.w3.org/2000/svg" width="36.458" height="24.942" viewBox="0 0 36.458 24.942">
  <g id="Group_12841" data-name="Group 12841" transform="translate(-1777.44 -179.671)">
    <path id="Path_6304" data-name="Path 6304" d="M748.984,13.418a4.276,4.276,0,0,0-3.036-1.268h-.063V8.268a2.274,2.274,0,0,0-2.307-2.235H720.55a2.274,2.274,0,0,0-2.307,2.235v3.881h-.162a4.316,4.316,0,0,0-4.3,4.3,4.324,4.324,0,0,0,3.4,4.211V25.1a2.477,2.477,0,0,0,2.474,2.474h.1l-2.34,2.331a.628.628,0,0,0,.443,1.073h2.763a.628.628,0,0,0,.409-.152l3.716-3.2c1.152-.006,2.5-.01,3.951-.013l4.033-.013h.936c2.065.013,4.009.009,5.6.013l3.717,3.214a.631.631,0,0,0,.411.152h2.763a.628.628,0,0,0,.443-1.073l-2.34-2.33h.1a2.477,2.477,0,0,0,2.475-2.474V20.655a4.324,4.324,0,0,0,3.4-4.211,4.264,4.264,0,0,0-1.261-3.027M719.525,8.268a.992.992,0,0,1,1.025-.953h23.028a.992.992,0,0,1,1.025.953v3.867h-1.641a.565.565,0,0,0-.067.014h-.952a.627.627,0,0,0-.628.628v8.006a3.821,3.821,0,0,0-2.709-1.124H725.29a3.6,3.6,0,0,0-2.5,1c.093-2.929.078-3.049.078-7.878a.641.641,0,0,0-.642-.642h-2.7ZM741.1,22.862H722.792a2.579,2.579,0,0,1,2.5-1.947h13.316a2.58,2.58,0,0,1,2.5,1.947m5.064-3.376a.627.627,0,0,0-.583.627V25.1a1.22,1.22,0,0,1-1.219,1.218c-.138,0-.638,0-1.4.01l-.014,0a.625.625,0,0,0-.254-.058h-3.3a.49.49,0,0,0-.221.058c-.008,0-.018,0-.025.006l-5.467.011-8.769-.011a.619.619,0,0,0-.275-.064h-3.3a.58.58,0,0,0-.216.05h-1.454a1.219,1.219,0,0,1-1.218-1.218V20.113a.627.627,0,0,0-.583-.627,3.058,3.058,0,0,1-2.821-3.042,3.06,3.06,0,0,1,3.039-3.039h.736a.57.57,0,0,0,.067.014h2.575V23.49a.627.627,0,0,0,.628.628h19.857a.627.627,0,0,0,.628-.628V13.405h.324a.565.565,0,0,0,.067.014h2.283a.566.566,0,0,0,.067-.014h.637a3.059,3.059,0,0,1,3.04,3.039,3.058,3.058,0,0,1-2.821,3.042" transform="translate(1063.654 173.638)" fill="#383838"/>
  </g>
</svg>
