<svg xmlns="http://www.w3.org/2000/svg" width="35.635" height="31.113" viewBox="0 0 35.635 31.113">
  <g id="Group_12832" data-name="Group 12832" transform="translate(-881 -251.398)">
    <path id="Path_6287" data-name="Path 6287" d="M19.045,82.766,20.881,73.4l.01-.956c-.146.024-.146.167-.191.271-.839,1.963-1.2,4.423-2.033,6.357a1.246,1.246,0,0,1-2.4-.461l2.872-9.471a1.405,1.405,0,0,1,1.037-.641c2.325.133,4.838-.176,7.139,0a1.329,1.329,0,0,1,1.339.928l2.817,9.021A1.249,1.249,0,0,1,29,78.735l-2.144-6.288.009,1.374,1.752,8.946H26.977l-.126.126v7.971a3.892,3.892,0,0,1-.252.419,1.216,1.216,0,0,1-2.143-.291l-.039-8.015c.03-.313-.912-.244-1.014-.173-.087.065-.072.161-.083.254-.279,2.278.216,5.133.008,7.475a1.242,1.242,0,0,1-2.012,1,1.767,1.767,0,0,1-.426-.583V82.892l-.126-.126Z" transform="translate(885.163 189.608)" fill="#383838"/>
    <path id="Path_6288" data-name="Path 6288" d="M10.072,72.531V90.948a2.056,2.056,0,0,1-.377.546c-.936.784-1.965.067-2.061-1.047-.239-2.784.182-5.911.008-8.733-.094-.731-1.125-.566-1.1.171l-.038,9.108a1.224,1.224,0,0,1-2.18.246,3.2,3.2,0,0,1-.214-.458V72.531l-1.8,6.8a1.228,1.228,0,0,1-2.293-.78c.9-2.906,1.32-6.2,2.269-9.061A1.237,1.237,0,0,1,3.483,68.5c2.308.149,4.859-.2,7.139,0a1.325,1.325,0,0,1,1.218.712l2.322,9.256a1.208,1.208,0,0,1-2.307.713c-.743-1.866-.937-4.418-1.6-6.369-.038-.111-.024-.257-.18-.283" transform="translate(881 189.607)" fill="#383838"/>
    <path id="Path_6289" data-name="Path 6289" d="M6,63.832c3.313-.195,3.47,4.848.226,4.933C3.015,68.851,2.8,64.021,6,63.832" transform="translate(881.948 188.427)" fill="#383838"/>
    <path id="Path_6290" data-name="Path 6290" d="M22.6,63.832c3.19-.251,3.63,4.676.393,4.928-3.253.254-3.6-4.676-.393-4.928" transform="translate(886.211 188.426)" fill="#383838"/>
    <path id="Path_6344" data-name="Path 6344" d="M23428.4,19595v29.914" transform="translate(-22530 -19343)" fill="none" stroke="#383838" stroke-linecap="round" stroke-width="1.2"/>
  </g>
</svg>
