<svg xmlns="http://www.w3.org/2000/svg" width="20.874" height="20.88" viewBox="0 0 20.874 20.88">
  <path id="Path_6264" data-name="Path 6264" d="M5.131,18.7H9.556a1.044,1.044,0,0,0,.741-.3l7.222-7.233h0l2.964-2.9a1.044,1.044,0,0,0,0-1.482L16.059,2.3a1.044,1.044,0,0,0-1.482,0L11.633,5.257h0L4.39,12.49a1.044,1.044,0,0,0-.3.741v4.425A1.044,1.044,0,0,0,5.131,18.7ZM15.318,4.516l2.954,2.954L16.789,8.951,13.836,6ZM6.175,13.659l6.189-6.189,2.954,2.954L9.129,16.612H6.175Zm15.656,7.129H3.044a1.044,1.044,0,1,0,0,2.087H21.831a1.044,1.044,0,0,0,0-2.087Z" transform="translate(-2 -1.994)" fill="#737373"/>
</svg>
