<svg xmlns="http://www.w3.org/2000/svg" width="10.406" height="10.628" viewBox="0 0 10.406 10.628">
  <g id="Icon" transform="translate(-0.61 0)">
    <path id="Union_4" data-name="Union 4" d="M2.489,10.627H1a1,1,0,0,1-1-1V6.315a1,1,0,0,1,1-1H2.489a1,1,0,0,1,.448.1c.527-.665,1.748-2.424,1.748-3.446,0-.844.037-1.568.5-1.848a1.226,1.226,0,0,1,1.2.113A2.123,2.123,0,0,1,7.548,1.521a3.189,3.189,0,0,1-.13,1.972h1.51a1.435,1.435,0,0,1,1.478,1.358,1.281,1.281,0,0,1-.191.678,1.3,1.3,0,0,1,0,1.355,1.271,1.271,0,0,1,.191.674A1.354,1.354,0,0,1,9.764,8.7a1.154,1.154,0,0,1,.019.219A1.43,1.43,0,0,1,8.3,10.31H3.237l-.03.03a1,1,0,0,1-.7.288Z" transform="translate(0.61)" fill="#56b918"/>
  </g>
</svg>
