<svg id="Group_8735" data-name="Group 8735" xmlns="http://www.w3.org/2000/svg" width="22.722" height="24" viewBox="0 0 22.722 24">
  <path id="Path_3886" data-name="Path 3886" d="M112.016,156.571v9.021a2.856,2.856,0,0,1-.919,1.862c-1.193,1.025-3.689.462-5.173.563l-9.7-9.76,5.06-5.116a32.32,32.32,0,0,0,4.35,6.77,27.841,27.841,0,0,0,1.8,2.281c.047.046.094.125.171.112Z" transform="translate(-90.527 -144.082)" fill="#244cb4"/>
  <path id="Path_3887" data-name="Path 3887" d="M197.305.024a5.646,5.646,0,0,1,5.266,2.448c3.178,4.68-1.936,10.276-4.639,13.858-.082.017-.151-.1-.2-.147a24.689,24.689,0,0,1-1.647-2.139c-2.194-2.96-5.142-7.124-3.254-10.923a5.778,5.778,0,0,1,4.473-3.1m.295,3.134c-3.165.367-2.782,5.258.515,5.011,3.333-.25,2.87-5.4-.515-5.011" transform="translate(-180.857 0.001)" fill="#244cb4"/>
  <path id="Path_3888" data-name="Path 3888" d="M11.08,42.122a7.712,7.712,0,0,0-.712,3.936,6.51,6.51,0,0,1,.149,1.327L.254,57.621V44.4a2.677,2.677,0,0,1,2.4-2.278Z" transform="translate(-0.239 -39.63)" fill="#244cb4"/>
  <path id="Path_3889" data-name="Path 3889" d="M13.621,264.063H2.293a3.074,3.074,0,0,1-1.125-.413C-.18,262.774-.01,261.325.027,259.9l4.7-4.711Z" transform="translate(0 -240.098)" fill="#244cb4"/>
</svg>
