<svg xmlns="http://www.w3.org/2000/svg" width="14.247" height="14.247" viewBox="0 0 14.247 14.247">
  <g id="Layer_2" data-name="Layer 2" transform="translate(-3 -3)">
    <g id="external-link" transform="translate(3 3)">
      <path id="Path_5767" data-name="Path 5767" d="M16.455,9.332a.791.791,0,0,0-.791.791v4.749a.791.791,0,0,1-.791.791h-9.5a.791.791,0,0,1-.791-.791v-9.5a.791.791,0,0,1,.791-.791h4.749a.791.791,0,0,0,0-1.583H5.374A2.374,2.374,0,0,0,3,5.374v9.5a2.374,2.374,0,0,0,2.374,2.374h9.5a2.374,2.374,0,0,0,2.374-2.374V10.123A.791.791,0,0,0,16.455,9.332Z" transform="translate(-3 -3)" fill="#244cb4"/>
      <path id="Path_5768" data-name="Path 5768" d="M14.956,4.583h1.251l-4.978,4.97a.795.795,0,1,0,1.124,1.124l4.978-4.97V6.957a.791.791,0,0,0,1.583,0V3.791A.791.791,0,0,0,18.122,3H14.956a.791.791,0,1,0,0,1.583Z" transform="translate(-4.667 -3)" fill="#244cb4"/>
    </g>
  </g>
</svg>
