<svg xmlns="http://www.w3.org/2000/svg" width="21.102" height="21.068" viewBox="0 0 21.102 21.068">
  <path id="Path_3670" data-name="Path 3670" d="M18,14a4,4,0,0,0-3.08,1.48l-5.1-2.35a3.64,3.64,0,0,0,0-2.26l5.1-2.35A4,4,0,1,0,14,6a4.17,4.17,0,0,0,.07.71L8.79,9.14a4,4,0,1,0,0,5.72l5.28,2.43A4.17,4.17,0,0,0,14,18a4,4,0,1,0,4-4ZM18,4a2,2,0,1,1-2,2A2,2,0,0,1,18,4ZM6,14a2,2,0,1,1,2-2A2,2,0,0,1,6,14Zm12,6a2,2,0,1,1,2-2A2,2,0,0,1,18,20Z" transform="translate(-1.494 -1.432)" stroke="#fff" stroke-width="1"/>
</svg>
