<svg xmlns="http://www.w3.org/2000/svg" width="20.524" height="20.524" viewBox="0 0 20.524 20.524">
  <path id="Path_5930" data-name="Path 5930" d="M7.27,231.518a5.025,5.025,0,0,0-5.017,5.017v9.99a5.024,5.024,0,0,0,5.017,5.017h9.99a5.025,5.025,0,0,0,5.017-5.017v-9.99a5.025,5.025,0,0,0-5.017-5.017Zm0,1.676h9.99a3.315,3.315,0,0,1,3.341,3.341v9.99a3.315,3.315,0,0,1-3.341,3.34H7.27a3.315,3.315,0,0,1-3.341-3.34v-9.99a3.315,3.315,0,0,1,3.341-3.341Zm5.192,2.555a.838.838,0,0,0-.826.849v4.038H7.6a.838.838,0,1,0,0,1.675h4.038v4.038a.838.838,0,1,0,1.676,0v-4.038H17.35a.838.838,0,1,0,0-1.675H13.312V236.6a.838.838,0,0,0-.85-.849Z" transform="translate(-2.003 -231.268)" fill="#244cb4" stroke="#fff" stroke-width="0.5"/>
</svg>
