<svg xmlns="http://www.w3.org/2000/svg" width="21.349" height="21.351" viewBox="0 0 21.349 21.351">
  <g id="Group_12173" data-name="Group 12173" transform="translate(-1.324 -1.324)">
    <path id="Union_5" data-name="Union 5" d="M-671.5-5073a10.5,10.5,0,0,1,10.5-10.5,10.5,10.5,0,0,1,10.5,10.5,10.5,10.5,0,0,1-10.5,10.5A10.5,10.5,0,0,1-671.5-5073Zm1,0a9.5,9.5,0,0,0,9.5,9.5,9.5,9.5,0,0,0,9.5-9.5,9.5,9.5,0,0,0-9.5-9.5A9.5,9.5,0,0,0-670.5-5073Zm4.2,5.3a.5.5,0,0,1-.111-.538l2.828-7.072h0a.482.482,0,0,1,.051-.1h0l.006-.009,0,0,0,0,.006-.009h0a.5.5,0,0,1,.227-.163l7.052-2.821a.5.5,0,0,1,.54.109h0a.5.5,0,0,1,.111.54l-2.827,7.07a.5.5,0,0,1-.289.283l-7.061,2.825a.5.5,0,0,1-.186.035A.5.5,0,0,1-666.3-5067.7Zm3.364-6.533-2.114,5.282,5.284-2.113-3.17-3.17Zm.708-.708,3.17,3.169,2.113-5.282Z" transform="translate(673 5085)" fill="#244cb4" stroke="#244cb4" stroke-width="0.35"/>
  </g>
</svg>
