<svg xmlns="http://www.w3.org/2000/svg" width="16" height="21.254" viewBox="0 0 16 21.254">
  <g id="Group_12169" data-name="Group 12169" transform="translate(-12 -17.24)">
    <path id="Path_3857" data-name="Path 3857" d="M6.263.428a5.561,5.561,0,0,1,6.092,1.224A5.654,5.654,0,0,1,13.56,7.786,5.583,5.583,0,0,1,2.811,5.627h0l.005-.243A5.625,5.625,0,0,1,6.263.428ZM8.39,1.608A3.978,3.978,0,0,0,5.562,2.782,4.047,4.047,0,0,0,6.853,9.355a3.982,3.982,0,0,0,4.364-.867A4.048,4.048,0,0,0,12.088,4.1,4,4,0,0,0,8.39,1.608Z" transform="translate(11.6 17.494)" fill="#200e32" stroke="#fff" stroke-width="0.35"/>
    <g id="Ellipse_308" data-name="Ellipse 308" transform="translate(12 29.494)" fill="#fff" stroke="#210e32" stroke-width="1.25">
      <ellipse cx="8" cy="4.5" rx="8" ry="4.5" stroke="none"/>
      <ellipse cx="8" cy="4.5" rx="7.375" ry="3.875" fill="none"/>
    </g>
  </g>
</svg>
