<svg xmlns="http://www.w3.org/2000/svg" width="21.787" height="21.782" viewBox="0 0 21.787 21.782">
  <path id="Path_6357" data-name="Path 6357" d="M524.526,4.91a10.791,10.791,0,0,0-2.469-.283,10.882,10.882,0,1,0,2.469.283m-.519,4.465V9.359a1.652,1.652,0,0,1,2-1.1,1.541,1.541,0,0,1,1.163,1.792,1.665,1.665,0,0,1-2.028,1.1,1.473,1.473,0,0,1-1.132-1.777m-11.6,4.717c-.157,0-.283-.11-.33-.33v-.016a6.348,6.348,0,0,1-.1-1.1,6.739,6.739,0,0,1,.614-1.022c.267-.346.6-.252.739.173a2.541,2.541,0,0,1-.582,2.138.584.584,0,0,1-.346.157m2.5,8.1a1.239,1.239,0,0,1-.409-.126v.016a2.93,2.93,0,0,1-1.163-2.673.561.561,0,0,1,.613-.488.5.5,0,0,1,.314.126,3.056,3.056,0,0,1,1.164,2.595c-.063.361-.252.55-.519.55m4.088-8.082a1.5,1.5,0,0,1-1.462,1.148,1.213,1.213,0,0,1-.33-.047,1.479,1.479,0,0,1-1.117-1.777,1.493,1.493,0,1,1,2.909.676m-.424-5.582a1.233,1.233,0,0,1-.409-.031.831.831,0,0,1-.739-.912.785.785,0,0,1,.188-.441,2.642,2.642,0,0,1,2.453-1.006.814.814,0,0,1,.739.9.643.643,0,0,1-.173.441,2.554,2.554,0,0,1-2.059,1.053m3.883,15.787a1.5,1.5,0,0,1-.518-.095c-.111-.047-.205-.094-.315-.141a1.36,1.36,0,0,1-.833-1.667,1.427,1.427,0,0,1,1.871-.6,1.446,1.446,0,0,1,1.1,1.619,1.309,1.309,0,0,1-1.3.881m3.9-7.422a1.75,1.75,0,0,1-1.7,1.289,2.2,2.2,0,0,1-.456-.047,1.785,1.785,0,0,1-1.258-2.154,1.766,1.766,0,0,1,2.123-1.289c.015.016.047.016.062.031a1.747,1.747,0,0,1,1.227,2.17m.55,7.831h-.063l.016-.016c-.33,0-.44-.189-.409-.378a2.357,2.357,0,0,1,1.981-1.478c.331.048.425.2.346.519a2.46,2.46,0,0,1-1.871,1.353m4.025-4.513a1.094,1.094,0,0,1-.754.283,1.2,1.2,0,0,1-1.085-.818,2.133,2.133,0,0,1,.786-2.437,1.152,1.152,0,0,1,1.6.236,1.546,1.546,0,0,1,.157.33,5.818,5.818,0,0,1,.189,1.274,6.186,6.186,0,0,1-.9,1.132m.6-7.013a.425.425,0,0,1-.267-.094,2.489,2.489,0,0,1-.834-2.249c.063-.236.283-.314.614-.141a2.555,2.555,0,0,1,.864,2.138.41.41,0,0,1-.377.346" transform="translate(-511.157 -4.627)" fill="#383838"/>
</svg>
