<svg xmlns="http://www.w3.org/2000/svg" width="26.604" height="23.92" viewBox="0 0 26.604 23.92">
  <g id="Group_12853" data-name="Group 12853" transform="translate(-1049.041 -354.533)">
    <path id="Subtraction_13" data-name="Subtraction 13" d="M-22506.23-19433.145h-20.937a2.837,2.837,0,0,1-2.834-2.832v-14.158a2.837,2.837,0,0,1,2.834-2.832h20.938a2.837,2.837,0,0,1,2.832,2.832v14.158A2.837,2.837,0,0,1-22506.23-19433.145Zm-15.346-12.043a.542.542,0,0,0-.543.543v2.2a.542.542,0,0,0,.543.543h3.229v3.234a.546.546,0,0,0,.549.543h2.193a.546.546,0,0,0,.549-.543v-3.234h3.229a.546.546,0,0,0,.549-.543v-2.2a.546.546,0,0,0-.549-.543h-3.229v-3.229a.549.549,0,0,0-.549-.549h-2.193a.549.549,0,0,0-.549.549v3.229Z" transform="translate(23579.043 19811.598)" fill="#383838"/>
    <path id="Path_6333" data-name="Path 6333" d="M188.311,7.55V5.134a1.1,1.1,0,0,0-1.1-1.1H175.477a1.1,1.1,0,0,0-1.1,1.1V7.42" transform="translate(881 351)" fill="none" stroke="#383838" stroke-linecap="round" stroke-linejoin="round" stroke-width="1"/>
  </g>
</svg>
