<svg xmlns="http://www.w3.org/2000/svg" width="26.029" height="26.019" viewBox="0 0 26.029 26.019">
  <g id="noun-pickleball-6530092" transform="translate(-2.505 -2.51)">
    <path id="Path_5378" data-name="Path 5378" d="M5.865,28.245l-.781.781a.733.733,0,0,1-1.041,0L2.722,27.7a.733.733,0,0,1,0-1.041l.82-.82a.186.186,0,0,1,.27,0L7.206,22.45,9.3,24.542,5.9,27.936s.058.212-.039.309Z" transform="translate(0 -0.714)" fill="#383838"/>
    <path id="Path_5379" data-name="Path 5379" d="M27.343,15.025l-6.19,6.19a4.725,4.725,0,0,1-5.612.81h0c-2.632-.955-3.992.4-3.992.4l-.357.357a.53.53,0,0,1-.742,0l-2-2a.53.53,0,0,1,0-.742l.357-.357s1.36-1.369.4-3.992h0a4.723,4.723,0,0,1,.81-5.612l6.19-6.19a4.737,4.737,0,0,1,6.7,0l4.435,4.435a4.737,4.737,0,0,1,0,6.7Z" transform="translate(-0.207 0)" fill="#383838"/>
  </g>
</svg>
