<svg xmlns="http://www.w3.org/2000/svg" width="27.809" height="15.848" viewBox="0 0 27.809 15.848">
  <g id="Group_12852" data-name="Group 12852" transform="translate(-1225.615 -359.934)">
    <g id="Group_12731" data-name="Group 12731">
      <path id="Path_6327" data-name="Path 6327" d="M372.424,20.978v.651c-.38,1.524-1.975,2.361-3.375,2.78a17.771,17.771,0,0,1-5.543.308c-4.61-.074-9.224-.234-13.831-.375-1.043-.032-2.16.027-3.2-.057a1.492,1.492,0,0,1-1.6-1.332c-.257-1.593.606-.916,1.5-.743a26.564,26.564,0,0,0,3.453.126l12.038.379c2.355-.095,4.789.373,7.079-.3a4.54,4.54,0,0,0,3.037-2.2Z" transform="translate(881 351)" fill="#383838"/>
      <path id="Path_6328" data-name="Path 6328" d="M361.972,13.1a6.43,6.43,0,0,0,.719.336c.081,0,.3-.183.492-.21.8-.108,1.2.414,1.3,1.139.83.355,1.6.847,2.445,1.174,1.242.483,4.413,1.008,4.975,2.237.725,1.584-1.065,2.94-2.322,3.48-2.1.9-3.774.672-5.972.639-4.655-.069-9.292-.236-13.94-.375-1.081-.032-2.228.024-3.305-.057-1.376-.1-1.634-.767-1.708-2.034-.131-2.265-.058-5.582,1.2-7.526.278-.428,1.114-1.564,1.673-1.042.468.437.5,1.419,1.165,1.925a3.974,3.974,0,0,0,3.874.029c-.6-.558-1.688-.947-1.128-1.943a16.5,16.5,0,0,1,1.325-1.766.539.539,0,0,1,.532-.164l4.423,2.09.106-.006a1.053,1.053,0,0,1,1.715.511c.039.131-.017.3.077.411a4.6,4.6,0,0,0,.628.3c.154.01.294-.142.483-.164a1.1,1.1,0,0,1,1,.417c.136.189.17.529.239.6m-10.588,6.411h1.925a3.282,3.282,0,0,0,.679-.514c1.623-1.405,3.14-2.941,4.771-4.338.03-.069.148-.206.055-.271a6.6,6.6,0,0,0-1.167-.3c-.37,0-.628.3-.895.518-1.793,1.5-3.454,3.174-5.254,4.669Zm10.52-4.12c-.427-.073-1.139-.454-1.55-.276l-4.606,4.123c-.176.148-.214.3.053.33a5.451,5.451,0,0,0,1.785-.118l4.15-3.767Z" transform="translate(881 351)" fill="#383838"/>
    </g>
  </g>
</svg>
