<svg xmlns="http://www.w3.org/2000/svg" width="15.424" height="16.966" viewBox="0 0 15.424 16.966">
  <path id="Path_3696" data-name="Path 3696" d="M15.881,2.542H15.11V1.771a.771.771,0,1,0-1.542,0v.771H5.856V1.771a.771.771,0,0,0-1.542,0v.771H3.542A1.547,1.547,0,0,0,2,4.085V16.424a1.547,1.547,0,0,0,1.542,1.542H15.881a1.547,1.547,0,0,0,1.542-1.542V4.085A1.547,1.547,0,0,0,15.881,2.542ZM15.11,16.424H4.314a.773.773,0,0,1-.771-.771V10.019H15.881v5.634A.773.773,0,0,1,15.11,16.424Z" transform="translate(-2 -1)" fill="#383838"/>
</svg>
