<svg xmlns="http://www.w3.org/2000/svg" width="12.025" height="8.013" viewBox="0 0 12.025 8.013">
  <path id="trending-up" d="M15.018,6.668a.521.521,0,0,0,0-.14.427.427,0,0,0-.033-.114.734.734,0,0,0-.06-.093.5.5,0,0,0-.093-.114l-.08-.047a.461.461,0,0,0-.127-.067h-.134A.467.467,0,0,0,14.351,6H11.012a.668.668,0,1,0,0,1.335H12.9L10.231,10.48,7.346,8.764a.668.668,0,0,0-.855.147L3.153,12.918a.669.669,0,0,0,1.028.855l2.971-3.566L10,11.916a.668.668,0,0,0,.848-.14l2.831-3.305v1.536a.668.668,0,0,0,1.335,0Z" transform="translate(-2.998 -6)" fill="#244cb4"/>
</svg>
