<svg xmlns="http://www.w3.org/2000/svg" width="45.61" height="39.282" viewBox="0 0 45.61 39.282">
  <g id="Ahmedabad" transform="translate(-0.4 -0.029)">
    <path id="Path_5958" data-name="Path 5958" d="M45.886,37.651H43.05V23.285H41.633a4.312,4.312,0,0,0-3.544-4.247V17.5H36.672v1.536A4.255,4.255,0,0,0,33.466,21.6l-.339,1.146V14.611h1.418V13.166H33.128V11.72h1.418V10.275H33.128V8.829h1.418V7.384H33.128V5.531A4.486,4.486,0,0,0,32.6,4.266,3.9,3.9,0,0,0,31,3.091V.154H29.584V3.091A3.9,3.9,0,0,0,27.99,4.265a4.481,4.481,0,0,0-.532,1.265V7.383H26.041V8.828h1.417v1.446H26.041v1.446h1.417v1.446H26.041V14.61h1.417v4.337H26.041A3.122,3.122,0,0,0,23.914,16.1V14.61H22.5V16.1a3.122,3.122,0,0,0-2.126,2.846H18.953V14.61h1.418V13.165H18.953V11.719h1.418V10.274H18.953V8.828h1.418V7.383H18.953V5.53a4.486,4.486,0,0,0-.532-1.265,3.9,3.9,0,0,0-1.595-1.175V.154H15.41V3.091a3.9,3.9,0,0,0-1.595,1.175,4.481,4.481,0,0,0-.532,1.265V7.383H11.866V8.828h1.418v1.446H11.866v1.446h1.418v1.446H11.866V14.61h1.418v8.132L12.945,21.6A4.27,4.27,0,0,0,9.74,19.038V17.5H8.322v1.536a4.31,4.31,0,0,0-3.544,4.247H3.361V37.741H.525v1.446h45.36V37.65ZM28.875,7.382V5.621c0-.594.9-1.15,1.462-1.137.525.013,1.373.586,1.373,1.137V7.382H28.875Zm-14.176,0V5.621c0-.594.9-1.15,1.462-1.137.525.013,1.373.586,1.373,1.137V7.382H14.7ZM28.875,8.828H31.71v1.446H28.875Zm-14.176,0h2.835v1.446H14.7Zm14.176,2.891H31.71v1.446H28.875Zm-14.176,0h2.835v1.446H14.7Zm14.176,2.891H31.71v4.337H28.875Zm-14.176,0h2.835v4.337H14.7Zm7.088,4.337a1.418,1.418,0,1,1,2.835,0Zm12.758,4.337a2.835,2.835,0,1,1,5.67,0Zm-5.67-2.891H31.71v2.891H28.875Zm-9.923,0h8.506V37.741H26.04V26.853a7.848,7.848,0,0,0-1.815-4.112,4.658,4.658,0,0,0-.98-.817c-.483-.047-1.626,1.531-1.882,1.967a7.8,7.8,0,0,0-.993,2.962V37.741H18.952Zm-4.253,0h2.835v2.891H14.7ZM6.194,23.285a2.836,2.836,0,1,1,5.67,0ZM21.787,37.741V26.853a7.839,7.839,0,0,1,.241-1.019,4.818,4.818,0,0,1,1.145-2c.352-.061,1.108,1.661,1.209,2a7.788,7.788,0,0,1,.241,1.019V37.741ZM33.128,24.73h8.506V37.741H40.216V30.2c0-.728-1.082-1.681-1.652-2.02-.859-.511-1.054-.662-1.969-.228-.69.327-2.049,1.4-2.049,2.247v7.544H33.128V24.73Zm-4.252,0H31.71V37.741H28.875Zm-14.176,0h2.835V37.741H14.7Zm-9.923,0h8.506V37.741H11.864V30.2c0-.728-1.082-1.681-1.652-2.02-.859-.511-1.054-.662-1.969-.228-.69.327-2.049,1.4-2.049,2.247v7.544H4.776V24.73ZM35.963,37.741V30.287a2.949,2.949,0,0,1,1.447-1.109c.318.028,1.388.863,1.388,1.2v7.364H35.963Zm-28.352,0V30.287a2.949,2.949,0,0,1,1.447-1.109c.318.028,1.388.863,1.388,1.2v7.364H7.611Z" fill="#0e50a3" stroke="#fff" stroke-width="0.25"/>
    <path id="Path_5959" data-name="Path 5959" d="M37,25.016c-.61.623.351,1.6.961.98S37.607,24.393,37,25.016Z" transform="translate(2.362 1.407)" fill="#0e50a3" stroke="#fff" stroke-width="0.25"/>
    <path id="Path_5960" data-name="Path 5960" d="M32.965,25.016c-.61.623.351,1.6.961.98S33.575,24.393,32.965,25.016Z" transform="translate(1.829 1.407)" fill="#0e50a3" stroke="#fff" stroke-width="0.25"/>
    <path id="Path_5961" data-name="Path 5961" d="M10.121,25.016c-.61.623.351,1.6.961.98S10.732,24.393,10.121,25.016Z" transform="translate(0.533 1.407)" fill="#0e50a3" stroke="#fff" stroke-width="0.25"/>
    <path id="Path_5962" data-name="Path 5962" d="M6.09,25.016c-.61.623.351,1.6.961.98S6.7,24.393,6.09,25.016Z" transform="translate(0 1.407)" fill="#0e50a3" stroke="#fff" stroke-width="0.25"/>
  </g>
</svg>
