<svg xmlns="http://www.w3.org/2000/svg" width="54.176" height="29.783" viewBox="0 0 54.176 29.783">
  <path id="Path_6959" data-name="Path 6959" d="M65.419,59.3h-2.6V46.254h.1a.425.425,0,0,0,.425-.425.418.418,0,0,0-.4-.418,2.123,2.123,0,0,0,0-.708,1.776,1.776,0,0,0-.708-1.175l-1.444-1.111v-.545a.425.425,0,0,0-.849,0v.552l-1.373,1.083a1.741,1.741,0,0,0-.708,1.175,1.9,1.9,0,0,0,0,.708h-.1a.425.425,0,1,0,0,.849h.226v2.194H51.91V46.24h.106a.421.421,0,0,0,.014-.842,2.123,2.123,0,0,0,0-.708,1.8,1.8,0,0,0-.708-1.175l-1.444-1.1v-.545a.425.425,0,0,0-.849,0v.552l-1.373,1.083a1.741,1.741,0,0,0-.708,1.175,1.9,1.9,0,0,0,0,.708h-.106a.425.425,0,0,0,0,.849h.226V46.9h-.149L45.067,45.61v-1.09a1.415,1.415,0,0,0-1.189-1.415.319.319,0,0,0,0-.142V40.9a.41.41,0,0,0,.283-.134A3.482,3.482,0,0,0,45,37.939a3.538,3.538,0,0,0-.453-1.267V35.193a.418.418,0,0,0-.425-.425.425.425,0,0,0-.425.425v.545a3.819,3.819,0,0,0-.326-.234L40.226,33.46V31.69a1.338,1.338,0,0,0-1.338-1.33h-.142A1.338,1.338,0,0,0,37.4,31.69V33.46l-3.255,2.01c-.113.078-.226.156-.333.241v-.552a.425.425,0,0,0-.849,0v1.415a.205.205,0,0,0,0,.064,3.439,3.439,0,0,0-.453,1.267,3.482,3.482,0,0,0,.835,2.831.41.41,0,0,0,.283.134v2.073a.318.318,0,0,0,0,.142A1.415,1.415,0,0,0,32.442,44.5v1.1l-1.854,1.288h-.149v-.658h.106a.421.421,0,0,0,.014-.842,1.946,1.946,0,0,0,0-.708,1.8,1.8,0,0,0-.708-1.175l-1.387-1.09v-.545a.425.425,0,0,0-.849,0v.552l-1.373,1.083a1.769,1.769,0,0,0-.708,1.175,1.9,1.9,0,0,0,0,.708h-.106a.425.425,0,1,0,0,.849h.226v2.194H19.583V46.24h.163a.425.425,0,0,0,0-.849H19.7a1.9,1.9,0,0,0,0-.708A1.769,1.769,0,0,0,19,43.509l-1.415-1.09v-.545a.425.425,0,1,0-.849,0v.552l-1.38,1.083a1.8,1.8,0,0,0-.708,1.175,2.059,2.059,0,0,0,0,.708H14.6a.425.425,0,1,0,0,.849h.163V59.3H12.2a.425.425,0,1,0,0,.842H65.419a.425.425,0,1,0,0-.842ZM23.058,57.7V56.643a.425.425,0,1,0-.849,0V57.7H19.583V54.874h6.128V57.7Zm-5.442,0V56.643a.425.425,0,0,0-.849,0V57.7H15.648V54.874h3.085V57.7ZM30.779,47.8h6.716a1.3,1.3,0,0,0,0,.29v.4H29.859V47.8Zm16.984,0V48.5H40.169v-.4a1.3,1.3,0,0,0-.042-.29H47.77Zm12.66,8.492a.425.425,0,0,0-.425.425V57.7H58.887V54.874h3.085V57.7H60.855V56.643a.425.425,0,0,0-.425-.425ZM55.413,57.7V56.643a.425.425,0,1,0-.849,0V57.7H51.91V54.874h6.128V57.7Zm-5.987,0H48.01V54.874H51.1V57.7ZM34.954,49.3v1.2H32.059V49.3Zm1.564,0v1.614h0v2.123h0v3.114H35.81V49.3Zm1.366,0h2.378v1.2H37.4V49.3Zm3.942,0v6.85h-.708V49.3Zm3.744,0v1.2H42.675V49.3Zm1.557,0v6.85h-.708V49.3ZM30.5,57h16.63V57.7H30.5Zm4.458-4.381H32.059V51.336h2.894Zm-2.894.842h2.894v2.689H32.059Zm8.2-.849H37.4V51.336H40.29Zm-2.866.849H40.29v2.689H37.4Zm8.2-.849H42.675V51.336h2.894Zm-2.923.849h2.894v2.689H42.675ZM31.21,56.148H30.5V49.3h.708Zm27.677-9.872h3.085v4.246H58.887Zm3.085,5.06v2.739H58.887V51.336Zm-3.935,2.739H51.91V51.336h6.128Zm-6.978,0H48.01V51.336H51.1ZM39.32,48.052v.4H38.308v-.4a1.613,1.613,0,0,1,.5-.885,1.635,1.635,0,0,1,.517.885Zm-9.674,6.029H26.561V51.336h3.085Zm-3.935,0H19.583V51.336h6.128ZM15.648,51.336h3.085v2.739H15.648Zm0-5.067h3.085v4.246H15.648Zm10.912,8.662h3.085v2.831H26.561Zm23.353,3.637H61.945v.708H49.914Zm8.811-13.757a.941.941,0,0,1,.354-.623l1.3-1.019L61.8,44.2a.927.927,0,0,1,.347.616,1.118,1.118,0,0,1-.078.594H58.8a1.118,1.118,0,0,1-.078-.594ZM58.017,49.3v1.2H51.91V49.3Zm-10.2-4.487a.948.948,0,0,1,.361-.623l1.3-1.019L50.884,44.2a.92.92,0,0,1,.34.616,1.118,1.118,0,0,1-.071.594H47.9a1.118,1.118,0,0,1-.085-.594Zm.2,1.465H51.1v4.246H48.01V49.3h.219a.425.425,0,0,0,.425-.425V47.337a.425.425,0,0,0-.425-.425H48.01ZM41.33,41.7a.425.425,0,0,0-.425.425V43.1h-1.67v-.962a.425.425,0,0,0-.849,0v.977H36.751v-.977a.425.425,0,1,0-.849,0v.977H34.487a.708.708,0,0,0,0-.12V40.911h8.641v2.066a.708.708,0,0,0,0,.12H41.712v-.962a.425.425,0,0,0-.418-.439Zm-1.585-7.53,3.312,2.024a2.668,2.668,0,0,1,1.231,1.868,2.633,2.633,0,0,1-.524,2H40.226v-.885a1.571,1.571,0,0,0-.113-.559,2.208,2.208,0,0,0-1.062-1.146.5.5,0,0,0-.368,0,2.257,2.257,0,0,0-1.1,1.125,1.663,1.663,0,0,0-.127.609v.885H33.857a2.633,2.633,0,0,1-.517-2,2.668,2.668,0,0,1,1.231-1.868L37.848,34.2Zm-1.415,5.01a.771.771,0,0,1,.05-.283,1.2,1.2,0,0,1,.453-.538,1.3,1.3,0,0,1,.453.538.913.913,0,0,1,.05.283v.885H38.308Zm.573-7.968a.474.474,0,0,1,.481.481v1.628H38.259V31.69a.474.474,0,0,1,.481-.481ZM33.34,44.521a.573.573,0,0,1,.573-.573h9.794a.58.58,0,0,1,.58.573v.63H33.34ZM33.446,46H44.175l1.309.913H39.7a4.841,4.841,0,0,0-.63-.658.425.425,0,0,0-.538,0,4.536,4.536,0,0,0-.623.658H32.137Zm-4.013.913a.425.425,0,0,0-.425.425v1.536a.425.425,0,0,0,.425.425h.212v1.2H26.561V46.247h3.085v.637ZM26.405,44.79a.913.913,0,0,1,.354-.623l1.3-1.019,1.415,1.026a.92.92,0,0,1,.34.616,1.054,1.054,0,0,1-.071.594H26.483a1.054,1.054,0,0,1-.078-.573ZM25.7,49.276v1.2H19.583V49.3Zm-10.2-4.465a.913.913,0,0,1,.354-.623l1.3-1.019L18.557,44.2a.92.92,0,0,1,.34.616,1.054,1.054,0,0,1-.071.594H15.571A1.054,1.054,0,0,1,15.493,44.811Zm.163,13.757h11.96v.708H15.655Zm12.809.708V58.61H49.093v.665Z" transform="translate(-11.723 -30.36)" fill="#0e50a3"/>
</svg>
