<svg xmlns="http://www.w3.org/2000/svg" width="34.566" height="43.3" viewBox="0 0 34.566 43.3">
  <path id="Path_6958" data-name="Path 6958" d="M28.2,18.5a.317.317,0,0,0-.336.336v1.142l-.336.2a2.2,2.2,0,0,0-1.008,1.814v2.217H26.18a.317.317,0,0,0-.336.336v2.016a.317.317,0,0,0,.336.336h.336V29.25H25.508a.317.317,0,0,0-.336.336v2.688a.317.317,0,0,0,.336.336h1.008v4.7h-1.68a.317.317,0,0,0-.336.336v8.063a.317.317,0,0,0,.336.336h1.008V60.828H24.836a.336.336,0,0,0,0,.672H58.43a.336.336,0,0,0,0-.672H57.422V46.047H58.43a.317.317,0,0,0,.336-.336V37.648a.317.317,0,0,0-.336-.336H56.75v-4.7h1.008a.317.317,0,0,0,.336-.336V29.586a.317.317,0,0,0-.336-.336H56.75V26.9h.336a.317.317,0,0,0,.336-.336V24.547a.317.317,0,0,0-.336-.336H56.75V21.994a2.053,2.053,0,0,0-1.008-1.814l-.336-.2V18.836a.336.336,0,0,0-.672,0v1.142l-.336.2a2.2,2.2,0,0,0-1.008,1.814v2.217h-.336a.317.317,0,0,0-.336.336v2.016a.317.317,0,0,0,.336.336h.336V29.25H52.383a.317.317,0,0,0-.336.336v2.688a.317.317,0,0,0,.336.336h1.008v.672H29.875v-.672h1.008a.317.317,0,0,0,.336-.336V29.586a.317.317,0,0,0-.336-.336H29.875V26.9h.336a.317.317,0,0,0,.336-.336V24.547a.317.317,0,0,0-.336-.336h-.336V21.994a2.053,2.053,0,0,0-1.008-1.814l-.336-.2V18.836A.317.317,0,0,0,28.2,18.5Zm0,2.083.336.2a1.569,1.569,0,0,1,.672,1.075H27.188a1.333,1.333,0,0,1,.672-1.075Zm26.875,0,.336.2a1.569,1.569,0,0,1,.672,1.075H54.063a1.333,1.333,0,0,1,.672-1.075ZM27.188,22.531H29.2v1.68h-.672v-.672a.336.336,0,0,0-.672,0v.672h-.672Zm26.875,0h2.016v1.68h-.672v-.672a.336.336,0,0,0-.672,0v.672h-.672ZM26.516,24.883h3.359v1.344H29.2v-.336a.336.336,0,0,0-.672,0v.336h-.672v-.336a.336.336,0,0,0-.672,0v.336h-.672Zm26.875,0H56.75v1.344h-.672v-.336a.336.336,0,0,0-.672,0v.336h-.672v-.336a.336.336,0,0,0-.672,0v.336h-.672ZM27.188,26.9H29.2V29.25H27.188Zm26.875,0h2.016V29.25H54.063ZM25.844,29.922h4.7v2.016h-.672V30.93a.336.336,0,0,0-.672,0v1.008h-.672V30.93a.336.336,0,0,0-.672,0v1.008h-.672V30.93a.336.336,0,0,0-.672,0v1.008h-.672Zm26.875,0h4.7v2.016H56.75V30.93a.336.336,0,0,0-.672,0v1.008h-.672V30.93a.336.336,0,0,0-.672,0v1.008h-.672V30.93a.336.336,0,0,0-.672,0v1.008h-.672ZM27.188,32.609H29.2v4.7H27.188Zm26.875,0h2.016v4.7H54.063ZM29.875,33.953H53.391v.672H29.875Zm0,1.344H53.391v2.016H52.047v-.336a1.008,1.008,0,0,0-2.016,0v.336h-.672v-.336a1.008,1.008,0,0,0-2.016,0v.336h-.672v-.336a1.008,1.008,0,0,0-2.016,0v.336h-.672v-.336a1.008,1.008,0,0,0-2.016,0v.336H41.3v-.336a1.008,1.008,0,0,0-2.016,0v.336h-.672v-.336a1.008,1.008,0,0,0-2.016,0v.336h-.672v-.336a1.008,1.008,0,0,0-2.016,0v.336h-.672v-.336a1.008,1.008,0,0,0-2.016,0v.336H29.875Zm2.352,1.344a.317.317,0,0,1,.336.336v.336h-.672v-.336A.317.317,0,0,1,32.227,36.641Zm2.688,0a.317.317,0,0,1,.336.336v.336h-.672v-.336A.317.317,0,0,1,34.914,36.641Zm2.688,0a.317.317,0,0,1,.336.336v.336h-.672v-.336A.317.317,0,0,1,37.6,36.641Zm2.688,0a.317.317,0,0,1,.336.336v.336h-.672v-.336A.317.317,0,0,1,40.289,36.641Zm2.688,0a.317.317,0,0,1,.336.336v.336h-.672v-.336A.317.317,0,0,1,42.977,36.641Zm2.688,0a.317.317,0,0,1,.336.336v.336h-.672v-.336A.317.317,0,0,1,45.664,36.641Zm2.688,0a.317.317,0,0,1,.336.336v.336h-.672v-.336A.317.317,0,0,1,48.352,36.641Zm2.688,0a.317.317,0,0,1,.336.336v.336H50.7v-.336A.317.317,0,0,1,51.039,36.641ZM25.172,37.984h6.047v7.391H25.172Zm6.719,0h.672v.336a.336.336,0,0,0,.672,0v-.336h.672v.336a.336.336,0,0,0,.672,0v-.336h.672v.336a.336.336,0,0,0,.672,0v-.336h.672v.336a.336.336,0,0,0,.672,0v-.336h.672v.336a.336.336,0,0,0,.672,0v-.336h.672v.336a.336.336,0,0,0,.672,0v-.336h.672v.336a.336.336,0,0,0,.672,0v-.336h.672v.336a.336.336,0,0,0,.672,0v-.336h.672v.336a.336.336,0,0,0,.672,0v-.336h.672v.336a.336.336,0,0,0,.672,0v-.336H46v.336a.336.336,0,0,0,.672,0v-.336h.672v.336a.336.336,0,0,0,.672,0v-.336h.672v.336a.336.336,0,0,0,.672,0v-.336h.672v.336a.336.336,0,0,0,.672,0v-.336h.672v7.391H50.7V42.352A2.574,2.574,0,0,0,49.158,40h-.2a2.5,2.5,0,0,0-1.612,2.352v3.023h-.672V42.352A2.574,2.574,0,0,0,45.127,40h-.2a2.5,2.5,0,0,0-1.612,2.352v3.023H39.953V42.352A2.574,2.574,0,0,0,38.408,40h-.2a2.5,2.5,0,0,0-1.613,2.352v3.023h-.672V42.352A2.574,2.574,0,0,0,34.377,40h-.2a2.5,2.5,0,0,0-1.613,2.352v3.023h-.672Zm20.156,0h6.047v7.391H52.047Zm-25.2.672a1.033,1.033,0,0,0-1.008,1.008v1.344a.317.317,0,0,0,.336.336h1.344a.317.317,0,0,0,.336-.336V39.664A1.033,1.033,0,0,0,26.852,38.656Zm2.688,0a1.033,1.033,0,0,0-1.008,1.008v1.344a.317.317,0,0,0,.336.336h1.344a.317.317,0,0,0,.336-.336V39.664A1.033,1.033,0,0,0,29.539,38.656Zm24.188,0a1.033,1.033,0,0,0-1.008,1.008v1.344a.317.317,0,0,0,.336.336H54.4a.317.317,0,0,0,.336-.336V39.664A1.033,1.033,0,0,0,53.727,38.656Zm2.688,0a1.033,1.033,0,0,0-1.008,1.008v1.344a.317.317,0,0,0,.336.336h1.344a.317.317,0,0,0,.336-.336V39.664A1.033,1.033,0,0,0,56.414,38.656Zm-29.562.672a.317.317,0,0,1,.336.336v1.008h-.672V39.664A.317.317,0,0,1,26.852,39.328Zm2.688,0a.317.317,0,0,1,.336.336v1.008H29.2V39.664A.317.317,0,0,1,29.539,39.328Zm24.188,0a.317.317,0,0,1,.336.336v1.008h-.672V39.664A.317.317,0,0,1,53.727,39.328Zm2.688,0a.317.317,0,0,1,.336.336v1.008h-.672V39.664A.317.317,0,0,1,56.414,39.328ZM34.242,40.672a1.824,1.824,0,0,1,1.008,1.68v3.023H33.234V42.352A2.025,2.025,0,0,1,34.242,40.672Zm4.031,0a1.824,1.824,0,0,1,1.008,1.68v3.023H37.266V42.352A2.025,2.025,0,0,1,38.273,40.672Zm3.359,0a1.008,1.008,0,1,0,1.008,1.008A1.033,1.033,0,0,0,41.633,40.672Zm3.359,0A1.824,1.824,0,0,1,46,42.352v3.023H43.984V42.352A2.025,2.025,0,0,1,44.992,40.672Zm4.031,0a1.824,1.824,0,0,1,1.008,1.68v3.023H48.016V42.352A2.025,2.025,0,0,1,49.023,40.672Zm-7.391.672a.336.336,0,1,1-.336.336A.317.317,0,0,1,41.633,41.344Zm-14.781.672a1.033,1.033,0,0,0-1.008,1.008v1.344a.317.317,0,0,0,.336.336h1.344a.317.317,0,0,0,.336-.336V43.023A1.033,1.033,0,0,0,26.852,42.016Zm2.688,0a1.033,1.033,0,0,0-1.008,1.008v1.344a.317.317,0,0,0,.336.336h1.344a.317.317,0,0,0,.336-.336V43.023A1.033,1.033,0,0,0,29.539,42.016Zm24.188,0a1.033,1.033,0,0,0-1.008,1.008v1.344a.317.317,0,0,0,.336.336H54.4a.317.317,0,0,0,.336-.336V43.023A1.033,1.033,0,0,0,53.727,42.016Zm2.688,0a1.033,1.033,0,0,0-1.008,1.008v1.344a.317.317,0,0,0,.336.336h1.344a.317.317,0,0,0,.336-.336V43.023A1.033,1.033,0,0,0,56.414,42.016Zm-29.562.672a.317.317,0,0,1,.336.336v1.008h-.672V43.023A.317.317,0,0,1,26.852,42.688Zm2.688,0a.317.317,0,0,1,.336.336v1.008H29.2V43.023A.317.317,0,0,1,29.539,42.688Zm24.188,0a.317.317,0,0,1,.336.336v1.008h-.672V43.023A.317.317,0,0,1,53.727,42.688Zm2.688,0a.317.317,0,0,1,.336.336v1.008h-.672V43.023A.317.317,0,0,1,56.414,42.688Zm-29.9,3.359h3.359V60.828H26.516Zm4.031,0h.672v.336a.336.336,0,0,0,.672,0v-.336h.672v.336a.336.336,0,0,0,.672,0v-.336h.672V60.828H30.547Zm3.964,0h.739v.336a.336.336,0,0,0,.672,0v-.336h.672v.336a.336.336,0,0,0,.672,0v-.336h.672v.336a.336.336,0,0,0,.672,0v-.336h.672v.336a.336.336,0,0,0,.672,0v-.336h.672v.336a.336.336,0,0,0,.672,0v-.336h.672v.336a.336.336,0,0,0,.672,0v-.336h.672v.336a.336.336,0,0,0,.672,0v-.336h.672v.336a.336.336,0,0,0,.672,0v-.336H46v.336a.336.336,0,0,0,.672,0v-.336h.672v.336a.336.336,0,0,0,.672,0v-.336h.672V60.828H47.344V54.177A6.347,6.347,0,0,0,43.85,48.6l-2.083-1.142a.305.305,0,0,0-.336,0L39.348,48.6a6.478,6.478,0,0,0-3.494,5.577v6.652H34.511Zm14.848,0h.672v.336a.336.336,0,0,0,.672,0v-.336h.672v.336a.336.336,0,0,0,.672,0v-.336h.672V60.828H49.359Zm4.031,0H56.75V60.828H53.391ZM32.227,47.391A1.033,1.033,0,0,0,31.219,48.4v1.344a.317.317,0,0,0,.336.336H32.9a.317.317,0,0,0,.336-.336V48.4A1.033,1.033,0,0,0,32.227,47.391Zm4.031,0A1.008,1.008,0,1,0,37.266,48.4,1.033,1.033,0,0,0,36.258,47.391Zm10.75,0A1.008,1.008,0,1,0,48.016,48.4,1.033,1.033,0,0,0,47.008,47.391Zm4.031,0A1.033,1.033,0,0,0,50.031,48.4v1.344a.317.317,0,0,0,.336.336h1.344a.317.317,0,0,0,.336-.336V48.4A1.033,1.033,0,0,0,51.039,47.391Zm-18.812.672a.317.317,0,0,1,.336.336v1.008h-.672V48.4A.317.317,0,0,1,32.227,48.063Zm4.031,0a.336.336,0,1,1-.336.336A.317.317,0,0,1,36.258,48.063Zm10.75,0a.336.336,0,1,1-.336.336A.317.317,0,0,1,47.008,48.063Zm4.031,0a.317.317,0,0,1,.336.336v1.008H50.7V48.4A.317.317,0,0,1,51.039,48.063Zm-9.406.067L43.514,49.2a5.779,5.779,0,0,1,3.158,4.972v6.652H36.594V54.177A5.709,5.709,0,0,1,39.684,49.2Zm-9.406,2.62a1.033,1.033,0,0,0-1.008,1.008V53.1a.317.317,0,0,0,.336.336H32.9a.317.317,0,0,0,.336-.336V51.758A1.033,1.033,0,0,0,32.227,50.75Zm18.813,0a1.033,1.033,0,0,0-1.008,1.008V53.1a.317.317,0,0,0,.336.336h1.344a.317.317,0,0,0,.336-.336V51.758A1.033,1.033,0,0,0,51.039,50.75Zm-18.812.672a.317.317,0,0,1,.336.336v1.008h-.672V51.758A.317.317,0,0,1,32.227,51.422Zm18.813,0a.317.317,0,0,1,.336.336v1.008H50.7V51.758A.317.317,0,0,1,51.039,51.422ZM32.227,54.109a1.033,1.033,0,0,0-1.008,1.008v1.344a.317.317,0,0,0,.336.336H32.9a.317.317,0,0,0,.336-.336V55.117A1.033,1.033,0,0,0,32.227,54.109Zm18.813,0a1.033,1.033,0,0,0-1.008,1.008v1.344a.317.317,0,0,0,.336.336h1.344a.317.317,0,0,0,.336-.336V55.117A1.033,1.033,0,0,0,51.039,54.109Zm-18.812.672a.317.317,0,0,1,.336.336v1.008h-.672V55.117A.317.317,0,0,1,32.227,54.781Zm18.813,0a.317.317,0,0,1,.336.336v1.008H50.7V55.117A.317.317,0,0,1,51.039,54.781ZM32.227,57.469a1.033,1.033,0,0,0-1.008,1.008V59.82a.317.317,0,0,0,.336.336H32.9a.317.317,0,0,0,.336-.336V58.477A1.033,1.033,0,0,0,32.227,57.469Zm18.813,0a1.033,1.033,0,0,0-1.008,1.008V59.82a.317.317,0,0,0,.336.336h1.344a.317.317,0,0,0,.336-.336V58.477A1.033,1.033,0,0,0,51.039,57.469Zm-18.812.672a.317.317,0,0,1,.336.336v1.008h-.672V58.477A.317.317,0,0,1,32.227,58.141Zm18.813,0a.317.317,0,0,1,.336.336v1.008H50.7V58.477A.317.317,0,0,1,51.039,58.141Z" transform="translate(-24.35 -18.35)" fill="#0e50a3" stroke="#0e50a3" stroke-width="0.3"/>
</svg>
