<svg xmlns="http://www.w3.org/2000/svg" width="67.007" height="41.345" viewBox="0 0 67.007 41.345">
  <g id="Jaipur_icon" data-name="Jaipur icon" transform="translate(1466.477 -4047)">
    <path id="Path_6979" data-name="Path 6979" d="M79.908,67.675H71.825V65.967a.551.551,0,0,0-.551-.551H70.153V43.088a2.379,2.379,0,0,0-2.4-2.416H67.7a2.324,2.324,0,0,0-1.323.386V39.221a.679.679,0,0,0-.064-.248,3.38,3.38,0,0,0-2.241-1.763V35.795a.551.551,0,0,0-1.1,0v1.414a2.93,2.93,0,0,0-1.185.533V36.383a.551.551,0,0,0-.551-.551H58.856V33.26a.56.56,0,0,0-.073-.276,3.94,3.94,0,0,0-2.572-1.727v-1.47a.551.551,0,0,0-1.1,0v1.47A3.674,3.674,0,0,0,52.7,32.709h-2.36V31.515a.56.56,0,0,0-.073-.276A4.041,4.041,0,0,0,47.586,29.4V27.951a.551.551,0,1,0-1.1,0v1.506a3.839,3.839,0,0,0-2.755,1.837.588.588,0,0,0-.064.257v1.194H41.35a3.858,3.858,0,0,0-2.388-1.451V29.788a.56.56,0,1,0-1.121,0v1.47A3.674,3.674,0,0,0,35.242,33a.588.588,0,0,0-.064.257v2.572H32.8a.551.551,0,0,0-.551.551v1.359a2.93,2.93,0,0,0-1.185-.533V35.795a.551.551,0,1,0-1.1,0V37.2a3.38,3.38,0,0,0-2.223,1.773.68.68,0,0,0-.046.23v1.837a2.333,2.333,0,0,0-1.378-.395,2.379,2.379,0,0,0-2.4,2.425V65.388H22.76a.551.551,0,0,0-.551.551v1.708H14.145a.551.551,0,1,0,0,1.093H79.908a.551.551,0,1,0,0-1.093ZM66.378,65.416V62.66h0V59.629H69.07v5.759Zm-4.592,0V62.853a2.177,2.177,0,0,1,1.773-1.093,2.03,2.03,0,0,1,1.718,1.093v2.563Zm-2.948,0V62.761a.781.781,0,0,0,0-.147V59.657h1.837v5.759Zm-5.318,0V62.853a2.48,2.48,0,0,1,2.085-1.13,2.691,2.691,0,0,1,2.149,1.13v2.553Zm-3.2,0V59.657h2.094v5.759Zm-5.6,0v-2.36s.055,0,.073-.083a2.535,2.535,0,0,1,2.14-1.212,2.7,2.7,0,0,1,2.223,1.231l.064.073v2.351Zm-3.123,0V59.657h2.021v5.759Zm-5.318,0V62.853a2.507,2.507,0,0,1,2.076-1.111,2.654,2.654,0,0,1,2.158,1.111v2.535Zm-2.948,0V59.657h1.837v5.759Zm-4.592,0V62.853a2.03,2.03,0,0,1,1.754-1.093,2.177,2.177,0,0,1,1.754,1.093v2.553Zm0-13.465a2.03,2.03,0,0,1,1.754-1.093,2.177,2.177,0,0,1,1.763,1.1v4.308H28.776Zm3.472-1.6a2.9,2.9,0,0,0-1.718-.6,2.755,2.755,0,0,0-1.708.569V45.9a2.039,2.039,0,0,1,1.708-1.093,2.2,2.2,0,0,1,1.763,1.1Zm-4.592-3.334v4.813h0V56.3H24.983V47.028a1.617,1.617,0,0,1,1.323-.772,1.681,1.681,0,0,1,1.369.762ZM24.983,57.342h2.673v1.185H24.983Zm3.775,0H32.23v1.185H28.776ZM36.3,45.494a2.526,2.526,0,0,1,2.076-1.111,2.654,2.654,0,0,1,2.14,1.121v4.776a3.536,3.536,0,0,0-2.14-.707,3.472,3.472,0,0,0-2.076.67Zm4.216-1.506a3.536,3.536,0,0,0-2.14-.707,3.408,3.408,0,0,0-2.076.68V39.827a2.507,2.507,0,0,1,2.076-1.111,2.654,2.654,0,0,1,2.14,1.121ZM36.3,51.831a2.507,2.507,0,0,1,2.076-1.111,2.654,2.654,0,0,1,2.14,1.111V56.3H36.3Zm4.216,5.511v1.185H36.3V57.342Zm4.225-12.969a2.636,2.636,0,0,1,2.214-1.194,2.82,2.82,0,0,1,2.287,1.2v5.088a3.738,3.738,0,0,0-2.287-.772,3.674,3.674,0,0,0-2.214.735Zm4.5-1.534a3.729,3.729,0,0,0-2.287-.762,3.6,3.6,0,0,0-2.214.735v-4.39a2.654,2.654,0,0,1,2.214-1.194,2.82,2.82,0,0,1,2.287,1.2ZM44.739,51A2.654,2.654,0,0,1,46.953,49.8,2.82,2.82,0,0,1,49.24,51V56.24h-4.5Zm4.5,6.347v1.185h-4.5V57.342Zm4.3-11.848A2.489,2.489,0,0,1,55.6,44.383,2.673,2.673,0,0,1,57.754,45.5v4.776a3.573,3.573,0,0,0-2.149-.707,3.463,3.463,0,0,0-2.067.67Zm4.216-1.506A3.573,3.573,0,0,0,55.6,43.28a3.463,3.463,0,0,0-2.067.67V39.827A2.471,2.471,0,0,1,55.6,38.716a2.673,2.673,0,0,1,2.149,1.121Zm-4.216,7.844A2.489,2.489,0,0,1,55.6,50.72a2.673,2.673,0,0,1,2.149,1.111V56.3H53.538Zm4.216,5.511v1.185H53.538V57.342ZM69.07,58.555H66.378V57.342H69.07Zm0-2.287H66.378V51.831h0V47.055a1.589,1.589,0,0,1,1.3-.753,1.69,1.69,0,0,1,1.369.781Zm-3.775-9.46v3.518a2.755,2.755,0,0,0-1.736-.569,2.9,2.9,0,0,0-1.764.6V45.907a2.177,2.177,0,0,1,1.763-1.1A2.048,2.048,0,0,1,65.267,45.9ZM61.823,51.96a2.177,2.177,0,0,1,1.736-1.1,2.03,2.03,0,0,1,1.708,1.093v4.317H61.8Zm3.453,5.382v1.185H61.8V57.342Zm0,3.848a2.811,2.811,0,0,0-1.718-.533,2.9,2.9,0,0,0-1.764.6v-1.6h3.472Zm-4.592-2.664H58.847V57.342h1.837Zm-2.948,2.8a3.527,3.527,0,0,0-2.131-.7,3.417,3.417,0,0,0-2.085.68V59.657h4.216Zm-5.318-2.8H50.342V57.342h2.094Zm-3.2,2.912a3.573,3.573,0,0,0-2.287-.808,3.417,3.417,0,0,0-2.214.781V59.657h4.5Zm-5.6-2.912H41.6V57.342h2.021Zm-3.123,2.8a3.6,3.6,0,0,0-2.14-.7,3.472,3.472,0,0,0-2.076.67V59.657H40.5Zm-5.318-2.8H33.341V57.342h1.837Zm-2.948,1.1v1.6a2.9,2.9,0,0,0-1.736-.569,2.811,2.811,0,0,0-1.708.56V59.657ZM67.71,41.774h0A1.3,1.3,0,0,1,69.07,43.1v2.452a2.489,2.489,0,0,0-1.369-.395,2.452,2.452,0,0,0-1.3.367V43.069A1.359,1.359,0,0,1,67.71,41.774Zm-4.152-3.527a2.021,2.021,0,0,1,1.708,1.084v4.914a2.81,2.81,0,0,0-1.708-.542,2.9,2.9,0,0,0-1.763.606V39.34A2.177,2.177,0,0,1,63.559,38.247Zm-2.866-1.313V56.222H58.856V36.934Zm-5.1-4.592a2.682,2.682,0,0,1,2.158,1.121v4.886a3.674,3.674,0,0,0-2.149-.7,3.463,3.463,0,0,0-2.067.67V33.462A2.489,2.489,0,0,1,55.6,32.3Zm-3.169,1.506v22.42H50.342V33.811Zm-7.7-2.14a2.682,2.682,0,0,1,2.214-1.185,2.847,2.847,0,0,1,2.287,1.194v5.217a3.738,3.738,0,0,0-2.287-.772,3.6,3.6,0,0,0-2.214.744Zm-1.1,24.6H41.607V33.811h2.021ZM36.3,33.462a2.5,2.5,0,0,1,2.076-1.111,2.664,2.664,0,0,1,2.14,1.111v4.886a3.6,3.6,0,0,0-2.14-.7,3.472,3.472,0,0,0-2.076.67ZM33.35,36.98h1.837V56.268H33.35Zm-2.856,1.267a2.2,2.2,0,0,1,1.763,1.093v4.969a2.9,2.9,0,0,0-1.763-.606,2.811,2.811,0,0,0-1.708.569V39.359A2.039,2.039,0,0,1,30.494,38.247Zm-4.17,3.527h0a1.359,1.359,0,0,1,1.332,1.3V45.54a2.544,2.544,0,0,0-1.35-.386,2.416,2.416,0,0,0-1.323.377V43.106a1.3,1.3,0,0,1,1.332-1.332ZM24.983,59.657h2.673v3.031h0v2.755H24.983Zm-1.69,8.018V66.527H70.741v1.157Z" transform="translate(-1480 4019.6)" fill="#0e50a3"/>
    <path id="Path_6980" data-name="Path 6980" d="M31.951,54.56a.551.551,0,0,0-.551.551v1.763a.551.551,0,1,0,1.1,0V55.111A.551.551,0,0,0,31.951,54.56Z" transform="translate(-1481.457 4017.386)" fill="#0e50a3"/>
    <path id="Path_6981" data-name="Path 6981" d="M27.431,55.07a.551.551,0,0,0-.551.551v1.3a.551.551,0,0,0,1.1,0v-1.3A.551.551,0,0,0,27.431,55.07Z" transform="translate(-1481.089 4017.344)" fill="#0e50a3"/>
    <path id="Path_6982" data-name="Path 6982" d="M27.431,50.16a.551.551,0,0,0-.551.551v1.3a.551.551,0,0,0,1.1,0v-1.3a.551.551,0,0,0-.551-.551Z" transform="translate(-1481.089 4017.744)" fill="#0e50a3"/>
    <path id="Path_6983" data-name="Path 6983" d="M72.471,55.07a.551.551,0,0,0-.551.551v1.3a.551.551,0,1,0,1.1,0v-1.3a.551.551,0,0,0-.551-.551Z" transform="translate(-1484.761 4017.344)" fill="#0e50a3"/>
    <path id="Path_6984" data-name="Path 6984" d="M72.471,50.16a.551.551,0,0,0-.551.551v1.3a.551.551,0,1,0,1.1,0v-1.3a.551.551,0,0,0-.551-.551Z" transform="translate(-1484.761 4017.744)" fill="#0e50a3"/>
    <path id="Path_6985" data-name="Path 6985" d="M32.367,66.567a.579.579,0,0,0-.781,0,.79.79,0,0,0-.119.184.625.625,0,0,0,0,.423.588.588,0,0,0,.119.174.551.551,0,0,0,.395.165.514.514,0,0,0,.386-.165.459.459,0,0,0,.119-.174.625.625,0,0,0,0-.423A.579.579,0,0,0,32.367,66.567Z" transform="translate(-1481.46 4016.419)" fill="#0e50a3"/>
    <path id="Path_6986" data-name="Path 6986" d="M40.193,66.569a.533.533,0,0,0-.193.386.569.569,0,0,0,.551.551.542.542,0,0,0,.211,0,.459.459,0,0,0,.174-.119A.514.514,0,0,0,41.1,67a.56.56,0,0,0-.156-.395A.579.579,0,0,0,40.193,66.569Z" transform="translate(-1482.159 4016.417)" fill="#0e50a3"/>
    <path id="Path_6987" data-name="Path 6987" d="M49.535,66.568a.588.588,0,0,0-.165.395.551.551,0,0,0,.165.386.514.514,0,0,0,.386.165.551.551,0,0,0,.395-.165.588.588,0,0,0,.119-.175.542.542,0,0,0,0-.211.551.551,0,0,0-.918-.395Z" transform="translate(-1482.922 4016.418)" fill="#0e50a3"/>
    <path id="Path_6988" data-name="Path 6988" d="M58.986,66.567a.56.56,0,0,0-.156.395.542.542,0,0,0,.156.386.551.551,0,0,0,.395.165.589.589,0,0,0,.211,0,.542.542,0,0,0,.175-.119.459.459,0,0,0,.119-.175.542.542,0,0,0,.018-.266.56.56,0,0,0-.156-.395A.579.579,0,0,0,58.986,66.567Z" transform="translate(-1483.694 4016.419)" fill="#0e50a3"/>
    <path id="Path_6989" data-name="Path 6989" d="M40.581,54.56a.551.551,0,0,0-.551.551v1.763a.551.551,0,1,0,1.1,0V55.111A.551.551,0,0,0,40.581,54.56Z" transform="translate(-1482.161 4017.386)" fill="#0e50a3"/>
    <path id="Path_6990" data-name="Path 6990" d="M49.951,54.56a.551.551,0,0,0-.551.551v1.763a.551.551,0,1,0,1.1,0V55.111A.551.551,0,0,0,49.951,54.56Z" transform="translate(-1482.925 4017.386)" fill="#0e50a3"/>
    <path id="Path_6991" data-name="Path 6991" d="M59.341,54.56a.551.551,0,0,0-.551.551v1.763a.551.551,0,1,0,1.1,0V55.111A.551.551,0,0,0,59.341,54.56Z" transform="translate(-1483.69 4017.386)" fill="#0e50a3"/>
    <path id="Path_6992" data-name="Path 6992" d="M31.951,48a.551.551,0,0,0-.551.551v1.763a.551.551,0,1,0,1.1,0V48.542A.551.551,0,0,0,31.951,48Z" transform="translate(-1481.457 4017.921)" fill="#0e50a3"/>
    <path id="Path_6993" data-name="Path 6993" d="M41.13,49.686V47.95a.565.565,0,1,0-1.13,0v1.763a.551.551,0,0,0,1.1,0Z" transform="translate(-1482.159 4017.971)" fill="#0e50a3"/>
    <path id="Path_6994" data-name="Path 6994" d="M50.512,48.795V47.031a.551.551,0,0,0-1.1,0v1.763a.551.551,0,0,0,1.1,0Z" transform="translate(-1482.926 4018.045)" fill="#0e50a3"/>
    <path id="Path_6995" data-name="Path 6995" d="M59.9,49.687V47.951a.542.542,0,0,0-.551-.551.551.551,0,0,0-.551.551v1.763a.551.551,0,1,0,1.1-.028Z" transform="translate(-1483.691 4017.969)" fill="#0e50a3"/>
    <path id="Path_6996" data-name="Path 6996" d="M31.951,43.6a.551.551,0,0,0,.551-.551V41.281a.551.551,0,0,0-1.1,0v1.763A.551.551,0,0,0,31.951,43.6Z" transform="translate(-1481.457 4018.513)" fill="#0e50a3"/>
    <path id="Path_6997" data-name="Path 6997" d="M40.581,40.82a.551.551,0,0,0-.551.551v1.763a.551.551,0,0,0,1.1,0V41.371A.551.551,0,0,0,40.581,40.82Z" transform="translate(-1482.161 4018.506)" fill="#0e50a3"/>
    <path id="Path_6998" data-name="Path 6998" d="M49.951,39.45A.551.551,0,0,0,49.4,40v1.791a.551.551,0,1,0,1.1,0V40A.551.551,0,0,0,49.951,39.45Z" transform="translate(-1482.925 4018.618)" fill="#0e50a3"/>
    <path id="Path_6999" data-name="Path 6999" d="M59.341,40.82a.551.551,0,0,0-.551.551v1.763a.551.551,0,1,0,1.1,0V41.371A.551.551,0,0,0,59.341,40.82Z" transform="translate(-1483.69 4018.506)" fill="#0e50a3"/>
    <path id="Path_7000" data-name="Path 7000" d="M40.579,37.228a.551.551,0,0,0,.551-.551V34.95a.565.565,0,0,0-1.13,0v1.763A.551.551,0,0,0,40.579,37.228Z" transform="translate(-1482.159 4019.031)" fill="#0e50a3"/>
    <path id="Path_7001" data-name="Path 7001" d="M49.951,35.325a.551.551,0,0,0,.551-.551V33a.551.551,0,1,0-1.1,0v1.791A.551.551,0,0,0,49.951,35.325Z" transform="translate(-1482.925 4019.188)" fill="#0e50a3"/>
    <path id="Path_7002" data-name="Path 7002" d="M59.341,37.229a.551.551,0,0,0,.551-.551V34.951a.542.542,0,0,0-.551-.551.551.551,0,0,0-.551.551v1.763A.551.551,0,0,0,59.341,37.229Z" transform="translate(-1483.69 4019.03)" fill="#0e50a3"/>
    <path id="Path_7003" data-name="Path 7003" d="M67.951,54.56a.551.551,0,0,0-.551.551v1.763a.551.551,0,1,0,1.1,0V55.111A.551.551,0,0,0,67.951,54.56Z" transform="translate(-1484.392 4017.386)" fill="#0e50a3"/>
    <path id="Path_7004" data-name="Path 7004" d="M67.71,66.447a.587.587,0,0,0-.175.119.551.551,0,0,0-.165.395.514.514,0,0,0,.165.386.459.459,0,0,0,.175.119.524.524,0,0,0,.6-.119.514.514,0,0,0,.165-.386.551.551,0,0,0-.165-.395A.569.569,0,0,0,67.71,66.447Z" transform="translate(-1484.39 4016.42)" fill="#0e50a3"/>
    <path id="Path_7005" data-name="Path 7005" d="M67.951,48a.551.551,0,0,0-.551.551v1.763a.551.551,0,1,0,1.1,0V48.542A.551.551,0,0,0,67.951,48Z" transform="translate(-1484.392 4017.921)" fill="#0e50a3"/>
    <path id="Path_7006" data-name="Path 7006" d="M67.951,43.6a.551.551,0,0,0,.551-.551V41.281a.551.551,0,1,0-1.1,0v1.763A.551.551,0,0,0,67.951,43.6Z" transform="translate(-1484.392 4018.513)" fill="#0e50a3"/>
  </g>
</svg>
