<svg xmlns="http://www.w3.org/2000/svg" width="71.566" height="38.165" viewBox="0 0 71.566 38.165">
  <path id="Path_5933" data-name="Path 5933" d="M23.6,18.844a4.434,4.434,0,0,1,2.653-3.6c.116-.64-.323-2.033.737-1.857.75.125.188,1.4.452,1.873l1.453,1.21a4.057,4.057,0,0,0,.77-.77c.24-.519-.06-2.007.058-2.645-1.471.179-1.352-1.394.106-1.107.42-2.594,1.985-5.291,4.662-6.076a2.89,2.89,0,0,1,.412-1.963c.165-.23.63-.535.693-.747.156-.518-.234-2.252.319-2.441,1.39-.276.594,1.656.837,2.442.072.234.389.29.535.462a3.178,3.178,0,0,1,.681,2.358c2.615.7,4.112,3.484,4.553,5.962,1.493-.27,1.636,1.3.107,1.107l.024,2.624.811.9c.134-.528,1.307-1.037,1.448-1.32.282-.567-.418-2.08.772-1.876.121.021.4.2.4.276v1.6A4.059,4.059,0,0,1,48.295,17.2a10.481,10.481,0,0,1,.458,1.31v4.025h8.568V19.888c-1.287.185-1.286-1.289,0-1.1.07-1.372-.5-2.523,1.447-2.205.081-2.265-.475-4.608,1.291-6.384.211-.213,1.1-.745,1.134-.806.207-.352-.35-1.952.635-1.954.9,0,.477,1.457.631,1.9.057.163.575.4.762.568a4.734,4.734,0,0,1,1.668,2.868v3.8c1.947-.3,1.378.836,1.445,2.206,1.286-.187,1.29,1.287,0,1.1V37.75h5.174a.56.56,0,0,1-.106,1.108H1.065C-.007,38.753.425,37.75.849,37.75H6.023l0-17.8c-1.23.01-1.263-1.319-.01-1.171.192-1.215-.533-2.442,1.381-2.214l.167-.165c.145-2.431-.592-4.661,1.516-6.437.225-.19.9-.52.93-.566.188-.3-.323-1.943.516-1.965.968-.025.442,1.415.67,1.873.061.123,1.112.834,1.39,1.159,1.513,1.775.828,3.889,1.053,6.014.186.265,1.027-.083,1.3.258.254.319.021,1.588.1,2.051,1.357-.224,1.362,1.324,0,1.1v2.646H23.6c.091-1.182-.124-2.534,0-3.694ZM36.736,5.668c.055-.541.011-1.226-.6-1.428a1.5,1.5,0,0,0-.514,1.428Zm4.672,6.284C40.215,5.143,32.05,5,31.06,11.952Zm-29.042.882a3.052,3.052,0,0,0-1.733-2.425c-.779-.051-1.922,1.666-1.939,2.425Zm51.3,0c.042-.784-1.06-2.386-1.845-2.428-.721-.037-1.9,1.706-1.827,2.428Zm-30.934.221H30.837v1.93c.424.331,1.175.118,1.707.148l.185-.148Zm2.893,0h-1.78v2.1h1.614l.167-.165Zm1.113,0v1.93a2.745,2.745,0,0,0,1.843.062c.029-.609.21-1.488-.118-1.991Zm4.785,0h-1.78v2.1h1.78Zm-29.042.882H8.694v2.646l1.231-.049c.326-.225-.292-1.83.712-1.717.727.082.467,1.255.5,1.767h1.336Zm51.3,2.481V14.1l-.167-.165H60.046l-.167.165v2.316c.323.323.906.108,1.336.167-.353-2.386,1.564-2.355,1.223,0,.267-.042,1.244.127,1.336-.167ZM28.612,18.679a3.439,3.439,0,0,0-1.836-2.421c-.666-.019-2.016,1.7-1.947,2.421Zm13.909-1.1a1.453,1.453,0,0,0-1.175-1.317c-3.242.222-6.937-.319-10.125-.012a1.424,1.424,0,0,0-1.385,1.329h4.952c.085,0,.781-.967,1.335-1,.781-.05,1.355,1,1.447,1Zm5.007,1.1c.144-.737-1.3-2.441-1.948-2.42-.613.019-1.872,1.75-1.835,2.42Zm-33.6-.992H7.247v1.1h6.676Zm51.3,0H58.433v1.1h6.621C65.359,18.526,65.179,18.049,65.221,17.686ZM36.958,19.893c.034-.772-.008-1.74-.823-2.091-.7.56-.667,1.27-.624,2.091ZM34.4,18.679H29.836V20h4.451Zm8.123,0H38.07V20h4.451Zm-13.8,1.213-3.843-.005c-.119,1.668.016,3.351-.145,5l.149.183h3.839Zm18.917,0-3.895-.11v5.293h3.895Zm-33.716,0H7.247v5.183h6.676Zm44.509,5.183h6.621l.167-.165V20.057l-.167-.165H58.433ZM42.521,21.1H29.836v1.433H42.521Zm-27.485,3.97H23.6V23.75c-.8-.012-1.6.016-2.4.005-.6-.009-1.174,0-1.771,0-1.467,0-2.935-.011-4.4-.005v1.324Zm42.284,0-.1-1.385c-2.789.118-5.648.041-8.465.062v1.324H57.32ZM31.95,23.751H29.836V35.66H31.95Zm7.344,0H33.063v3.529c1.57-1.375,3.041-2.038,5.011-.941a10.383,10.383,0,0,1,1.221.941Zm3.227,0H40.407V35.66h2.114Zm-28.6,2.426H7.247v4.19h2.782v-1.6c0-.579,1.113-.319,1.113,0v1.6h2.782Zm9.681,0H15.036v4.19h2.5c.208-.6,1.216-1.979,1.893-1.977.571,0,1.764,1.351,1.724,1.977H23.6Zm5.119,0H24.884l-.167.165v4.025h1.336c-.385-2.652,1.608-2.652,1.223,0h1.448V26.176Zm18.917,0H43.745v4.19h1.447v-1.6c0-.558,1.113-.383,1.113,0v1.6h1.335Zm9.681,0H48.752v4.19h2.559c-.04-.626,1.153-1.976,1.724-1.977.69,0,1.655,1.383,1.893,1.977H57.32Zm7.9,4.19V26.342l-.167-.165H58.433v4.19h2.782c-.383-2.652,1.607-2.652,1.224,0Zm-25.927,5.4V29.65a4.173,4.173,0,0,0-1.112-1.876,2.655,2.655,0,0,0-3.842-.056,3.652,3.652,0,0,0-1.277,2.152V35.6l.167.165Zm-19.362-5.4c.077-.067-.309-.69-.5-.668-.283,0-.416.464-.613.614Zm33.716,0-.513-.656-.6.493c-.047.249.11.152.276.164.276.02.561-.013.837,0ZM13.923,31.58H7.247v4.19H9.862c.461-.462-.28-2.215.775-2.1.9.1.227,1.636.672,2.1h2.615Zm43.4,0H48.752V35.6l.167.165h2.225c.24-.648,1.134-2.056,1.9-2.1.571-.03,1.859,1.457,1.827,2.1H57.32Zm-33.716,0H15.036V35.6l.167.165H17.6c-.031-.642,1.253-2.125,1.826-2.1.808.041,1.613,1.439,1.9,2.1H23.6Zm5.119,0H24.717V35.6c.323.323.906.108,1.335.165v-1.6c0-.593,1.224-.593,1.224,0v1.6c.462-.064,1.093.165,1.447-.165Zm18.917,0H43.745v4.19l1.4-.1c.253-.358-.375-2.278.748-1.976a1.683,1.683,0,0,1,.414.37V35.77c.429-.057,1.013.158,1.335-.165Zm17.581,0H58.433V35.6l.167.165h2.615v-1.6c0-.593,1.224-.593,1.224,0v1.6h2.615l.167-.165ZM19.932,35.77c-.149-.928-.68-1.014-1.11-.163C18.724,35.932,19.773,35.7,19.932,35.77Zm33.716,0c-.095-.791-.981-1.1-1.114-.164C52.486,35.945,53.419,35.7,53.648,35.77Zm11.573,1.1H7.247v.882H65.221Z" transform="translate(-0.393 -0.694)" fill="#0e50a3"/>
</svg>
