<svg xmlns="http://www.w3.org/2000/svg" xmlns:xlink="http://www.w3.org/1999/xlink" width="494" height="120" viewBox="0 0 494 120">
  <defs>
    <linearGradient id="linear-gradient" x1="0.5" x2="0.5" y2="0.536" gradientUnits="objectBoundingBox">
      <stop offset="0" stop-color="#fff"/>
      <stop offset="1" stop-color="#f4f5ff"/>
    </linearGradient>
    <clipPath id="clip-path">
      <path id="Rectangle_3456" data-name="Rectangle 3456" d="M20,0H474a20,20,0,0,1,20,20V120a0,0,0,0,1,0,0H0a0,0,0,0,1,0,0V20A20,20,0,0,1,20,0Z" transform="translate(-14272 -5744)" fill="url(#linear-gradient)"/>
    </clipPath>
  </defs>
  <g id="Mask_Group_10070" data-name="Mask Group 10070" transform="translate(14272 5744)" clip-path="url(#clip-path)">
    <path id="Path_5500" data-name="Path 5500" d="M438.681,128.429c-12.91-46.275-34.054-99.9-84.547-114.984-48.8-14.581-98.562,12.848-119.394,57.746-5.13,11.057-17.76,44.785-3.315,53.451,5.377,3.226,12.912-.083,15.817-5.64,7.125-13.629-5.014-28.618-16.645-34.5C185.931,61.934,105.475,36.551,7.1,147.084" transform="translate(-14039.683 -5916.975) rotate(49)" fill="none" stroke="#56b918" stroke-width="7"/>
  </g>
</svg>
