<svg xmlns="http://www.w3.org/2000/svg" width="45.482" height="39.223" viewBox="0 0 45.482 39.223">
  <path id="Mumbai" d="M13.46,15.471l0-9.57c.084-1.491.683-3.074,2.257-3.555C15.667,1.566,15.7.47,16.793.624c.805.113.705,1.133.7,1.722,2.023.625,2.376,2.9,2.254,4.723h6.207l.083-.081V5.524a5.6,5.6,0,0,1,.206-.936,3.115,3.115,0,0,1,2.049-2.242c.019-.562-.138-1.532.611-1.7,1.154-.265,1.213.907,1.17,1.7,1.56.467,2.166,2.081,2.257,3.555l0,9.569H42.787c.178,0,.579.387.623.581.169.742-.089,2.045.009,2.864.009.079.007.139.085.187h1.324a1.6,1.6,0,0,1,.481.449.9.9,0,0,1,.026.7c-.392,1.114-1.517,2.38-1.91,3.544l0,14.849a.839.839,0,0,1-.551.651l-39.758.028a.807.807,0,0,1-.743-.679l0-14.8C1.956,22.776,1.26,21.812.742,20.784c-.214-.424-.508-.79-.24-1.268.062-.111.4-.414.517-.414H2.288c.079-.048.076-.108.086-.187.1-.855-.13-1.985,0-2.818a.791.791,0,0,1,.187-.358,2.608,2.608,0,0,1,.444-.268H13.46ZM17.93,5.28c-.287-1.839-2.33-1.8-2.648,0Zm12.525,0c-.19-1.819-2.347-1.816-2.593,0ZM18.04,15.471V7.042l-.083-.081H15.226v8.51Zm12.525-8.51H27.834l-.083.081v8.429h2.814ZM26.04,8.749H19.75v1.626h6.29Zm0,3.361H19.75v3.361h6.29ZM13.46,17.151h-9.3l-.083.081v1.789l.083.081h9.3Zm1.766,2.764h2.455l.083-.081v-2.6l-2.538-.027Zm6.787-2.764H19.557l-.083.081v2.6l.083.081h2.455Zm4.3,2.764V17.232l-.083-.081H23.778v2.764Zm4.249-2.764-2.538.054v2.629l.083.081h2.455Zm11.145,0H32.33V19.1h9.3l.083-.081ZM13.46,20.783H2.756a15.642,15.642,0,0,0,1.021,1.843H13.46Zm29.574,0H32.33v1.762l.083.081h9.38a.509.509,0,0,0,.274-.053Zm-12.47.813H15.226V37.641H18.04l0-7.022A9.316,9.316,0,0,1,20.6,25.173a8.192,8.192,0,0,1,2.1-1.674.9.9,0,0,1,.813.222,9.9,9.9,0,0,1,4.234,6.9l0,7.022h2.814V21.6Zm-17.1,2.71H4.08V37.641h.938c.141-2.882-.5-5.913.909-8.565a9.259,9.259,0,0,1,2.263-2.709c.617-.427.972-.172,1.463.243a8.4,8.4,0,0,1,2.871,5.581l0,5.45h.938V24.306Zm28.25,0H32.33V37.641h.938c.158-2.659-.454-5.559.653-8.059a9.258,9.258,0,0,1,2.3-3.052c.466-.372.835-.539,1.378-.164a9.275,9.275,0,0,1,2.244,2.674c1.431,2.665.787,5.7.929,8.6h.938ZM19.75,37.641h6.29l0-6.7a7.753,7.753,0,0,0-2.449-4.939c-.116-.111-.6-.56-.717-.55A7.713,7.713,0,0,0,19.748,31Zm19.256,0V31.976a7.08,7.08,0,0,0-.248-1.057,6.476,6.476,0,0,0-1.766-2.764,8.82,8.82,0,0,0-1.326,1.785c-1.144,2.252-.525,5.072-.69,7.513l.086.187Zm-32.223,0h3.945c.079-.048.076-.108.085-.187.2-1.664-.117-3.776-.058-5.477a6.25,6.25,0,0,0-1.965-3.764,5.829,5.829,0,0,0-1.69,2.5,6.471,6.471,0,0,0-.316,1.261v5.664Z" transform="translate(-0.165 -0.352)" fill="#0e50a3" stroke="#fff" stroke-width="0.5"/>
</svg>
