<svg xmlns="http://www.w3.org/2000/svg" width="48.198" height="38.768" viewBox="0 0 48.198 38.768">
  <g id="Pune" transform="translate(-0.837 -0.026)">
    <path id="Path_5944" data-name="Path 5944" d="M36.5.026V4.453H35.4v6.222H47.818v3.47h1.217V38.794H.837V14.145H3.515v-3.47H14.834V4.453H13.373V.026H36.5Zm-1.217,1.2H14.591V3.257H35.282ZM19.459,4.453H16.051V8.462l.183.179h3.043l.183-.179Zm9.98,0H20.554V8.462l.183.179h8.7V4.453Zm4.868,0H30.657V8.641h3.469l.183-.179Zm-.122,7.538c-.181-.741.379-1.665-.061-2.273H16.234c-.44.609.12,1.532-.061,2.273Zm-19.352-.12H4.732v2.273h10.1V11.872Zm31.767,0H35.525v2.273H46.6ZM34.308,13.188H16.051v.957h3.408V15.7H30.413V14.145h3.895ZM3.88,15.342H1.932v2.812l.183.179H3.88Zm3.895,0H5.1v2.812l.183.179H7.591l.183-.179V15.342Zm1.217,2.991h2.5l.183-.179V15.521l-.183-.179h-2.5Zm6.451-2.991H12.765v2.812l.182.179h2.5Zm2.8,0H16.66v2.991c.5-.069,1.2.18,1.582-.179Zm15.336,0H31.631v2.812l.183.179h1.765Zm3.895,0H34.795v2.991h2.5l.183-.179Zm3.773,0H38.689v2.991h2.556Zm3.9,0H42.463v2.812l.183.179h2.312l.183-.179V15.342Zm2.8,0H46.358v2.991c.5-.069,1.2.18,1.582-.179ZM30.413,16.9H19.459V37.6h.852V23.777c0-2.108,2.936-3.878,4.934-3.773,2.031.107,4.438,2.041,4.438,4.132V37.6h.73ZM18.242,37.6V19.59l-.183-.179H2.115l-.183.179V37.6Zm29.7,0V19.59l-.183-.179H31.813l-.183.179V37.6Zm-19.475,0V24.136a7.28,7.28,0,0,0-.422-1.141,3.523,3.523,0,0,0-5.836-.464,5.186,5.186,0,0,0-.68,1.246V37.6h6.938Z" transform="translate(0)" fill="#0e50a3"/>
    <path id="Path_5945" data-name="Path 5945" d="M6.413,20.125H5.251v5.139H6.413Z" transform="translate(0 1.115)" fill="#0e50a3"/>
    <path id="Path_5946" data-name="Path 5946" d="M10.246,20.125H9.084v5.139h1.162Z" transform="translate(0.404 1.115)" fill="#0e50a3"/>
    <path id="Path_5947" data-name="Path 5947" d="M14.544,20.125H13.382v5.139h1.162Z" transform="translate(0.615 1.115)" fill="#0e50a3"/>
    <path id="Path_5948" data-name="Path 5948" d="M34.757,20.125H33.595v5.139h1.162Z" transform="translate(1.606 1.115)" fill="#0e50a3"/>
    <path id="Path_5949" data-name="Path 5949" d="M38.59,20.125H37.428v5.139H38.59Z" transform="translate(1.794 1.115)" fill="#0e50a3"/>
    <path id="Path_5950" data-name="Path 5950" d="M42.888,20.125H41.726v5.139h1.162Z" transform="translate(2.198 1.115)" fill="#0e50a3"/>
  </g>
</svg>
