<svg xmlns="http://www.w3.org/2000/svg" xmlns:xlink="http://www.w3.org/1999/xlink" width="30" height="30" viewBox="0 0 27 27">
  <path id="_Path_" data-name="&lt;Path&gt;"
        d="M25.089,1.5H3.315A1.815,1.815,0,0,0,1.5,3.315V25.089A1.815,1.815,0,0,0,3.315,26.9H13.6V17.226H11.178V13.6H13.6V11.178a4.839,4.839,0,0,1,4.839-4.839h3.629V9.968H18.436a1.21,1.21,0,0,0-1.21,1.21V13.6h4.839l-.6,3.629H17.226V26.9h7.863A1.815,1.815,0,0,0,26.9,25.089V3.315A1.815,1.815,0,0,0,25.089,1.5Z"
        fill="none" stroke="#fff" stroke-linecap="round" stroke-linejoin="round" stroke-width="1.4 "/>
</svg>