<svg xmlns="http://www.w3.org/2000/svg" xmlns:xlink="http://www.w3.org/1999/xlink" width="30" height="30" viewBox="0 0 30 30">
  <path id="af2da8f3726c5aa836b9ea2eeab70e0c"
        d="M22.341,6.588h0a1.591,1.591,0,1,0,1.591,1.591A1.591,1.591,0,0,0,22.341,6.588Zm6.1,3.209a10.064,10.064,0,0,0-.61-3.222,6.551,6.551,0,0,0-1.538-2.347A6.232,6.232,0,0,0,23.946,2.7a9.68,9.68,0,0,0-3.222-.623C19.318,2,18.867,2,15.26,2S11.2,2,9.8,2.08A9.68,9.68,0,0,0,6.575,2.7,6.338,6.338,0,0,0,4.228,4.228,6.232,6.232,0,0,0,2.7,6.575,9.68,9.68,0,0,0,2.08,9.8C2,11.2,2,11.653,2,15.26s0,4.058.08,5.463A9.68,9.68,0,0,0,2.7,23.946a6.232,6.232,0,0,0,1.525,2.347,6.338,6.338,0,0,0,2.347,1.525,9.68,9.68,0,0,0,3.222.623c1.406.08,1.856.08,5.463.08s4.058,0,5.463-.08a9.68,9.68,0,0,0,3.222-.623,6.232,6.232,0,0,0,2.347-1.525,6.431,6.431,0,0,0,1.538-2.347,10.065,10.065,0,0,0,.61-3.222c0-1.406.08-1.856.08-5.463S28.52,11.2,28.441,9.8ZM26.054,20.564a7.439,7.439,0,0,1-.451,2.466,4.058,4.058,0,0,1-.995,1.525,4.23,4.23,0,0,1-1.525.995A7.439,7.439,0,0,1,20.617,26c-1.326.066-1.817.08-5.3.08s-3.978,0-5.3-.08a7.6,7.6,0,0,1-2.572-.4,4.336,4.336,0,0,1-1.459-.995A3.978,3.978,0,0,1,5,23.084a7.346,7.346,0,0,1-.53-2.519c0-1.326-.08-1.817-.08-5.3s0-3.978.08-5.3A7.346,7.346,0,0,1,4.93,7.437,3.978,3.978,0,0,1,5.978,5.978,4.164,4.164,0,0,1,7.437,4.917a7.6,7.6,0,0,1,2.519-.451c1.326,0,1.817-.08,5.3-.08s3.978,0,5.3.08a7.439,7.439,0,0,1,2.466.451,4.058,4.058,0,0,1,1.578,1.061A4.058,4.058,0,0,1,25.6,7.437a7.439,7.439,0,0,1,.451,2.519c.066,1.326.08,1.817.08,5.3S26.12,19.238,26.054,20.564ZM15.26,8.458a6.789,6.789,0,1,0,4.823,1.984A6.8,6.8,0,0,0,15.26,8.458Zm0,11.218a4.416,4.416,0,1,1,4.416-4.416A4.416,4.416,0,0,1,15.26,19.676Z"
        fill="#fff "/>
</svg>