<svg xmlns="http://www.w3.org/2000/svg" width="22.42" height="22.371" viewBox="0 0 22.42 22.371">
  <g id="Group_16588" data-name="Group 16588" transform="translate(-1768.908 -3421.463)">
    <path id="Path_6949" data-name="Path 6949" d="M17.791,20.871H3.645a3.388,3.388,0,0,1-3.387-3.38V3.38A3.388,3.388,0,0,1,3.645,0H17.791a3.387,3.387,0,0,1,3.387,3.38V17.491A3.387,3.387,0,0,1,17.791,20.871Z" transform="translate(1769.4 3422.213)" fill="none" stroke="#f2f2f2" stroke-width="1.5"/>
    <path id="Path_6952" data-name="Path 6952" d="M0,6.391a1.3,1.3,0,0,1,.423-1A1.553,1.553,0,0,1,1.524,5,1.507,1.507,0,0,1,2.6,5.387a1.364,1.364,0,0,1,.423,1.04,1.274,1.274,0,0,1-.411.968,1.556,1.556,0,0,1-1.113.4H1.488a1.48,1.48,0,0,1-1.076-.4A1.34,1.34,0,0,1,0,6.391ZM.157,16.974V8.894H2.842v8.079Zm4.173,0H7.015V12.462a1.574,1.574,0,0,1,.611-1.349,1.314,1.314,0,0,1,.865-.284q1.355,0,1.355,1.826v4.318H12.53V12.341a3.893,3.893,0,0,0-.847-2.715A2.888,2.888,0,0,0,9.446,8.7a2.745,2.745,0,0,0-2.431,1.342v.024H7l.012-.024V8.894H4.33q.024.387.024,2.407T4.33,16.974Z" transform="translate(1773.854 3421.66)" fill="#f2f2f2"/>
  </g>
</svg>
