<svg xmlns="http://www.w3.org/2000/svg" xmlns:xlink="http://www.w3.org/1999/xlink" width="36" height="27" viewBox="0 0 33 27">
  <g id="_2959f838e8d72233ad90b73f455d827e" data-name="2959f838e8d72233ad90b73f455d827e">
    <path id="Path_5979" data-name="Path 5979"
          d="M30.068,5.946c-.838-1.783-1.746-2.111-3.6-2.236-1.849-.15-6.5-.211-10.527-.211s-8.688.061-10.535.211c-1.847.127-2.757.452-3.6,2.236C.945,7.73.5,10.8.5,16.2v.02c0,5.378.445,8.467,1.307,10.228.844,1.781,1.754,2.106,3.6,2.256,1.847.127,6.5.2,10.535.2s8.678-.076,10.529-.2c1.851-.15,2.759-.475,3.6-2.256.873-1.763,1.314-4.852,1.314-10.228V16.2c0-5.4-.441-8.467-1.316-10.25Z"
          transform="translate(-0.5 -3.5)" fill="none" stroke="#fff" stroke-linecap="round" stroke-linejoin="round" stroke-width="1.4"
          fill-rule="evenodd "/>
    <path id="Path_5980" data-name="Path 5980" d="M6.5,18.7V6l10.161,6.351Z" transform="translate(3.843 0.464)" fill="none" stroke="#fff"
          stroke-linecap="round" stroke-linejoin="round" stroke-width="1.4" fill-rule="evenodd "/>
  </g>
</svg>