<svg xmlns="http://www.w3.org/2000/svg" width="44" height="44" viewBox="0 0 44 44">
  <g id="Group_10539" data-name="Group 10539" transform="translate(-97 -440)">
    <circle id="Ellipse_306" data-name="Ellipse 306" cx="22" cy="22" r="22" transform="translate(97 440)" fill="#fff"/>
    <g id="Group_10538" data-name="Group 10538" transform="translate(107.289 450.05)">
      <path id="Path_5641" data-name="Path 5641" d="M142.022,109.2a10.24,10.24,0,0,0-.252-2.443H130.55V111.2h6.586a5.84,5.84,0,0,1-2.443,3.877l-.022.148,3.547,2.748.246.025a11.684,11.684,0,0,0,3.558-8.79" transform="translate(-118.6 -96.989)" fill="#4285f4"/>
      <path id="Path_5642" data-name="Path 5642" d="M24.6,165.957a11.39,11.39,0,0,0,7.914-2.895l-3.771-2.921a7.073,7.073,0,0,1-4.143,1.195,7.194,7.194,0,0,1-6.8-4.966l-.14.012-3.689,2.855-.048.134A11.941,11.941,0,0,0,24.6,165.957" transform="translate(-12.65 -142.057)" fill="#34a853"/>
      <path id="Path_5643" data-name="Path 5643" d="M5.152,79.1a7.357,7.357,0,0,1-.4-2.363,7.731,7.731,0,0,1,.385-2.363l-.007-.158L1.4,71.312l-.122.058a11.925,11.925,0,0,0,0,10.728l3.877-3" transform="translate(0 -64.784)" fill="#fbbc05"/>
      <path id="Path_5644" data-name="Path 5644" d="M24.6,4.621A6.623,6.623,0,0,1,29.221,6.4l3.373-3.293A11.481,11.481,0,0,0,24.6,0,11.941,11.941,0,0,0,13.925,6.586l3.864,3A7.224,7.224,0,0,1,24.6,4.621" transform="translate(-12.65)" fill="#eb4335"/>
    </g>
  </g>
</svg>
