<svg xmlns="http://www.w3.org/2000/svg" width="23.854" height="23.854" viewBox="0 0 23.854 23.854">
  <path id="Path_6978" data-name="Path 6978" d="M16.853,9.929l-5.01,5.021L9.917,13.023A1.168,1.168,0,1,0,8.271,14.67l2.744,2.756a1.17,1.17,0,0,0,1.646,0L18.5,11.587a1.168,1.168,0,1,0-1.646-1.658ZM13.677,2A11.677,11.677,0,1,0,25.354,13.677,11.677,11.677,0,0,0,13.677,2Zm0,21.019a9.342,9.342,0,1,1,9.342-9.342A9.342,9.342,0,0,1,13.677,23.019Z" transform="translate(-1.75 -1.75)" fill="#56b918" stroke="#fff" stroke-width="0.5"/>
</svg>
