<svg xmlns="http://www.w3.org/2000/svg" width="23.354" height="23.354" viewBox="0 0 23.354 23.354">
  <path id="Path_6987" data-name="Path 6987" d="M15.86,18.066h-.7V12.452a.934.934,0,0,0-.934-.934H11.5a.934.934,0,1,0,0,1.868h1.794v4.68H11.5a.934.934,0,1,0,0,1.868H15.86a.934.934,0,1,0,0-1.868Zm-2.183-8.58a1.4,1.4,0,1,0-1.4-1.4A1.4,1.4,0,0,0,13.677,9.486Zm0-7.486A11.677,11.677,0,1,0,25.354,13.677,11.69,11.69,0,0,0,13.677,2Zm6.848,18.689a9.8,9.8,0,1,1,2.961-7.012,9.8,9.8,0,0,1-2.961,7.012Z" transform="translate(-2 -2)" fill="#383838" opacity="0.7"/>
</svg>
