<svg xmlns="http://www.w3.org/2000/svg" width="44.765" height="44.702" viewBox="0 0 44.765 44.702">
  <g id="Group_8246" data-name="Group 8246" transform="translate(0.503 0.504)">
    <g id="Group_8667" data-name="Group 8667" transform="translate(0)">
      <g id="Group_8668" data-name="Group 8668" transform="translate(0 0)">
        <g id="Group_8670" data-name="Group 8670">
          <path id="Path_3861" data-name="Path 3861" d="M19.4.1c22.2-1.967,33.1,25.552,15.849,38.94C20.147,50.759-1.348,38.873.066,19.881.812,9.849,9.338.992,19.4.1" transform="translate(0.001 -0.001)" fill="rgba(171,228,0,0)" stroke="#383838" stroke-width="1" opacity="0.2"/>
          <g id="Group_8676" data-name="Group 8676" transform="translate(10.341 9.472)">
            <g id="Group_8667-2" data-name="Group 8667" transform="translate(0 0)">
              <g id="Group_8668-2" data-name="Group 8668" transform="translate(0 0)">
                <g id="Group_8671" data-name="Group 8671">
                  <path id="Path_3861-2" data-name="Path 3861" d="M10.1.053c11.558-1.024,17.234,13.3,8.252,20.276A11.373,11.373,0,1,1,10.1.053M15.76,6.407a2.775,2.775,0,0,0-4.412-1.938A2.735,2.735,0,0,0,7,6.407a2.761,2.761,0,0,0-2.422,3.93,2.712,2.712,0,0,0-.134,4.332c.634.655.385.845.809,1.519.712,1.134,1.337.856,2.146,1.345.2.123.252.344.4.468a2.91,2.91,0,0,0,2.537.714c.328-.055.875-.457,1.074-.44s.665.382,1.009.44a2.932,2.932,0,0,0,2.094-.381c.309-.206.572-.644.848-.8.749-.427,1.27-.2,1.983-1.12.428-.551.37-1.094.582-1.454.064-.109.644-.493.821-.73a2.757,2.757,0,0,0,.308-2.829c-.154-.337-.85-.957-.871-1.063-.027-.136.287-.87.279-1.247A2.822,2.822,0,0,0,15.76,6.407" transform="translate(0.001 -0.001)" fill="#244cb4" stroke="#fcfdff" stroke-width="0.5"/>
                  <path id="Path_3862" data-name="Path 3862" d="M82.173,85.54c.695-.143,1.485-.01,1.58.8l0,10.964c-.224,1.016-1.413,1.011-2.114.457-.326-.258-.444-.746-.672-.879-.434-.254-.882.042-1.487-.452-.8-.651-.379-1.037-.63-1.6-.177-.4-1.188-.5-1.31-1.5a1.594,1.594,0,0,1,.632-1.6c.141-.127.353-.165.487-.288.519-.479.013-.748-.167-1.2a1.648,1.648,0,0,1,1.522-2.3c.293,0,.613.248.92-.05.287-.278.066-.685.118-1.04a1.725,1.725,0,0,1,1.118-1.312" transform="translate(-72.953 -80.452)" fill="#244cb4" stroke="#fcfdff" stroke-width="0.5"/>
                  <path id="Path_3863" data-name="Path 3863" d="M203.6,85.473a1.631,1.631,0,0,1,2.064,1.58c.025.262-.257.547.156.814.362.234.557.005.863.01a1.648,1.648,0,0,1,1.522,2.3c-.111.275-.434.552-.392.831.077.508,1.222.657,1.344,1.668a1.576,1.576,0,0,1-.581,1.557c-.2.169-.635.318-.729.532-.187.427.061.788-.387,1.359-.653.834-1.259.377-1.739.686-.2.132-.45.752-.838,1a1.282,1.282,0,0,1-1.882-.34l-.056-11.2a.93.93,0,0,1,.653-.8" transform="translate(-190.987 -80.387)" fill="#244cb4" stroke="#fcfdff" stroke-width="0.5"/>
                </g>
              </g>
            </g>
          </g>
        </g>
      </g>
    </g>
  </g>
</svg>
