<svg width="17" height="17" viewBox="-0.5 0 16 16" xmlns="http://www.w3.org/2000/svg">
  <path fill="#383838" width=".005px" data-name="Path 39" d="M8.178 16h-1.35a1.865 1.865 0 0 1-1.863-1.862v-.626a.19.19 0 0 0-.091-.159l-.676-.394a.18.18 0 0 0-.183 0l-.539.311a1.85 1.85 0 0 1-1.414.186 1.86 1.86 0 0 1-1.133-.869l-.679-1.18a1.867 1.867 0 0 1 .68-2.541l.548-.316a.19.19 0 0 0 .092-.16v-.78a.19.19 0 0 0-.092-.16l-.547-.316A1.866 1.866 0 0 1 .25 4.593l.679-1.18a1.86 1.86 0 0 1 1.133-.869 1.84 1.84 0 0 1 1.414.187l.538.31a.18.18 0 0 0 .184 0l.676-.394a.19.19 0 0 0 .091-.159v-.626A1.865 1.865 0 0 1 6.828 0h1.353a1.865 1.865 0 0 1 1.864 1.862v.626a.19.19 0 0 0 .09.159l.677.394a.18.18 0 0 0 .183 0l.538-.311a1.84 1.84 0 0 1 1.415-.186 1.85 1.85 0 0 1 1.132.869l.679 1.18a1.866 1.866 0 0 1-.68 2.541l-.548.316a.19.19 0 0 0-.092.16v.78a.19.19 0 0 0 .092.16l.547.316a1.865 1.865 0 0 1 .681 2.541l-.679 1.18a1.85 1.85 0 0 1-1.132.869 1.84 1.84 0 0 1-1.415-.187l-.537-.31a.19.19 0 0 0-.184 0l-.677.394a.19.19 0 0 0-.09.159v.626A1.865 1.865 0 0 1 8.178 16m-4.076-4.063a1.2 1.2 0 0 1 .6.161l.676.4a1.18 1.18 0 0 1 .586 1.019v.626a.866.866 0 0 0 .866.865h1.353a.867.867 0 0 0 .867-.865v-.626a1.18 1.18 0 0 1 .585-1.019l.676-.4a1.19 1.19 0 0 1 1.186 0l.537.31a.85.85 0 0 0 .658.087.85.85 0 0 0 .525-.4l.68-1.179a.87.87 0 0 0-.317-1.181l-.546-.317a1.18 1.18 0 0 1-.59-1.022v-.78a1.18 1.18 0 0 1 .59-1.022l.547-.317a.87.87 0 0 0 .316-1.181l-.68-1.179a.85.85 0 0 0-.525-.4.87.87 0 0 0-.658.086l-.538.311a1.18 1.18 0 0 1-1.185 0l-.676-.4a1.18 1.18 0 0 1-.585-1.019v-.626a.867.867 0 0 0-.867-.865H6.828a.866.866 0 0 0-.866.865v.626a1.18 1.18 0 0 1-.586 1.019l-.676.4a1.18 1.18 0 0 1-1.186 0l-.536-.31a.86.86 0 0 0-.658-.087.86.86 0 0 0-.526.4l-.68 1.179a.87.87 0 0 0 .317 1.181l.546.317a1.18 1.18 0 0 1 .59 1.022v.78a1.18 1.18 0 0 1-.59 1.022l-.547.317a.87.87 0 0 0-.316 1.181l.68 1.179a.86.86 0 0 0 .526.4.85.85 0 0 0 .658-.086l.537-.311a1.2 1.2 0 0 1 .587-.161m3.417-.711A3.23 3.23 0 0 1 4.293 8a3.23 3.23 0 0 1 3.226-3.226A3.23 3.23 0 0 1 10.746 8a3.23 3.23 0 0 1-3.227 3.226m0-5.455A2.23 2.23 0 0 0 5.29 8a2.23 2.23 0 0 0 2.229 2.229A2.233 2.233 0 0 0 9.75 8a2.233 2.233 0 0 0-2.231-2.229"/>
</svg>
