<svg xmlns="http://www.w3.org/2000/svg" width="44.765" height="44.702" viewBox="0 0 44.765 44.702">
  <g id="Group_8246" data-name="Group 8246" transform="translate(-0.187 0.504)">
    <g id="Group_8667" data-name="Group 8667" transform="translate(0)">
      <g id="Group_8668" data-name="Group 8668" transform="translate(0 0)">
        <g id="Group_8670" data-name="Group 8670">
          <path id="Path_3861" data-name="Path 3861" d="M19.4.1c22.2-1.967,33.1,25.552,15.849,38.94C20.147,50.759-1.348,38.873.066,19.881.812,9.849,9.338.992,19.4.1" transform="translate(0.69 -0.001)" fill="rgba(171,228,0,0)" stroke="#383838" stroke-width="1" opacity="0.2"/>
          <g id="Group_8315" data-name="Group 8315" transform="matrix(0.899, 0.438, -0.438, 0.899, 10.215, 7.311)">
            <g id="Group_8674" data-name="Group 8674" transform="translate(0 0)">
              <path id="Path_3864" data-name="Path 3864" d="M6.585,14.919A7.518,7.518,0,0,0,14.308,4.339a7.534,7.534,0,0,0-12.637-1.6,7.528,7.528,0,0,0,4.914,12.18m.4-.713c-.462-.067-1.272-.466-1.163-1.034.219-1.133,3.366-1.108,3.327.132-.028.87-1.525.995-2.164.9m-4.06-2.3C1.779,11.793.667,9.394,1.608,8.958c1.5-.693,2.924,3.1,1.313,2.946m8.636-.165c-.485-.482-.042-1.656.335-2.126,1.235-1.537,2.387-.447,1.508,1.189-.282.525-1.253,1.523-1.843.937M7.138,9.119A1.681,1.681,0,0,1,7.585,5.8a1.675,1.675,0,1,1-.447,3.315M1.947,6.076c-.868,0-.706-1.1-.5-1.651S2.467,2.9,3.1,3.049c1.253.3.092,3.025-1.153,3.027m11.073.015c-1.2-.02-2.329-2.58-1.209-3,1.286-.486,2.8,3.03,1.209,3M7.06,2.6c-.48-.065-1.41-.485-1.221-1.1C6.188.376,9.214.489,9.147,1.7c-.047.847-1.456.986-2.087.9" transform="translate(9.843)" fill="#244cb4"/>
              <path id="Path_3865" data-name="Path 3865" d="M2.345,9.373,0,0,.438,9.512l.057.12Z" transform="translate(23.902 13.671)" fill="#244cb4"/>
              <path id="Path_3866" data-name="Path 3866" d="M9.115,0,0,2.159.633,3.877Z" transform="translate(0 4.8)" fill="#244cb4"/>
              <path id="Path_3867" data-name="Path 3867" d="M3.47,1.563c.5-.514.99-1.046,1.512-1.544L4.922,0C3.525.736,2.1,1.409.688,2.122c-.2.1-.439.226-.635.337-.035.02-.069-.014-.047.064L1.072,3.963Z" transform="translate(4.483 5.517)" fill="#244cb4"/>
              <path id="Path_3868" data-name="Path 3868" d="M1.848,5.746,2.183,0,0,5.345Z" transform="translate(20.763 15.023)" fill="#244cb4"/>
            </g>
          </g>
        </g>
      </g>
    </g>
  </g>
</svg>
