<svg xmlns="http://www.w3.org/2000/svg" width="17.205" height="18" viewBox="0 0 17.205 18">
  <path id="_21._Verified" data-name="21. Verified" d="M17.031,10.333a2.252,2.252,0,0,1,0-2.642L17.6,6.9a.751.751,0,0,0,.105-.676.764.764,0,0,0-.48-.48l-.923-.3a2.242,2.242,0,0,1-1.554-2.139V2.332a.751.751,0,0,0-.983-.713l-.931.3A2.252,2.252,0,0,1,10.321,1.1L9.75.313a.778.778,0,0,0-1.216,0l-.57.788a2.252,2.252,0,0,1-2.515.818l-.931-.3a.751.751,0,0,0-.983.713v.976A2.242,2.242,0,0,1,1.981,5.447l-.923.3a.764.764,0,0,0-.48.48A.751.751,0,0,0,.683,6.9l.57.788a2.252,2.252,0,0,1,0,2.642l-.57.788a.751.751,0,0,0-.105.676.764.764,0,0,0,.48.48l.923.3a2.242,2.242,0,0,1,1.554,2.139v.976a.751.751,0,0,0,.983.713l.923-.3a2.247,2.247,0,0,1,2.522.818l.57.788a.754.754,0,0,0,1.216,0l.57-.788a2.252,2.252,0,0,1,2.522-.818l.923.3a.751.751,0,0,0,.983-.713v-.976A2.242,2.242,0,0,1,16.3,12.578l.923-.3a.764.764,0,0,0,.48-.48.751.751,0,0,0-.105-.676ZM12.677,8.042,8.924,11.795a.751.751,0,0,1-1.061,0L5.611,9.543A.751.751,0,1,1,6.673,8.482L8.391,10.2,11.614,6.98a.751.751,0,1,1,1.061,1.061Z" transform="translate(-0.54 -0.02)" fill="#244cb4"/>
</svg>
