<svg xmlns="http://www.w3.org/2000/svg" width="11.805" height="15.394" viewBox="0 0 11.805 15.394">
  <path id="Path_6462" data-name="Path 6462" d="M17.463,8.821l-.248,7.5a2.472,2.472,0,0,1-2.479,2.391H10.025a2.472,2.472,0,0,1-2.479-2.388L7.3,8.821a.62.62,0,0,1,1.24-.041l.248,7.506a1.24,1.24,0,0,0,1.24,1.192h4.711a1.24,1.24,0,0,0,1.24-1.194l.248-7.5a.62.62,0,0,1,1.24.041Zm.82-2.5a.62.62,0,0,1-.62.62H7.1a.62.62,0,1,1,0-1.24H9.019a.791.791,0,0,0,.789-.712,1.854,1.854,0,0,1,1.85-1.67H13.1a1.854,1.854,0,0,1,1.85,1.67.791.791,0,0,0,.789.712h1.922a.62.62,0,0,1,.62.62Zm-7.4-.62h2.993a2.046,2.046,0,0,1-.158-.585A.62.62,0,0,0,13.1,4.56H11.659a.62.62,0,0,0-.616.558,2.046,2.046,0,0,1-.159.585Zm.624,9.391V9.817a.62.62,0,0,0-1.24,0V15.1a.62.62,0,0,0,1.24,0Zm2.984,0V9.817a.62.62,0,0,0-1.24,0V15.1a.62.62,0,0,0,1.24,0Z" transform="translate(-6.478 -3.322)" opacity="0.8"/>
</svg>
