<svg id="Group_10689" data-name="Group 10689" xmlns="http://www.w3.org/2000/svg" width="17.807" height="13.345" viewBox="0 0 17.807 13.345">
  <g id="Group_10688" data-name="Group 10688">
    <path id="Path_5700" data-name="Path 5700" d="M319.948,152.521v3.022a8.041,8.041,0,0,1-4.446.834v-2.206a3.971,3.971,0,0,0-.087-.4,2.746,2.746,0,0,0-2.38-2.049,2.14,2.14,0,0,1,1.753-1.147,26.253,26.253,0,0,1,3.06,0,2.262,2.262,0,0,1,2.005,1.572Z" transform="translate(-302.141 -145.291)" fill="#244cb4"/>
    <path id="Path_5701" data-name="Path 5701" d="M152.151,204.339a9.056,9.056,0,0,1-7.769,0l-.005-3.485a2.263,2.263,0,0,1,2.036-2.028c2.044.187,5.359-.87,5.746,2.061Z" transform="translate(-139.351 -191.869)" fill="#244cb4"/>
    <path id="Path_5702" data-name="Path 5702" d="M4.469,156.266a7.957,7.957,0,0,1-4.425-.83l-.024-.054c.057-.93-.067-1.93,0-2.851a2.267,2.267,0,0,1,2.067-2.067,24.132,24.132,0,0,1,3.158.006,2.135,2.135,0,0,1,1.689,1.142,2.747,2.747,0,0,0-2.38,2.049,3.968,3.968,0,0,0-.087.4Z" transform="translate(0 -145.18)" fill="#244cb4"/>
    <path id="Path_5703" data-name="Path 5703" d="M187.366,40c3.381-.308,3.7,4.773.441,4.991-3.295.22-3.632-4.7-.441-4.991" transform="translate(-178.701 -38.596)" fill="#244cb4"/>
    <path id="Path_5704" data-name="Path 5704" d="M39.452.016C42.616-.306,43,4.49,39.893,4.729c-3.08.237-3.477-4.4-.441-4.713" transform="translate(-36.068 0)" fill="#244cb4"/>
    <path id="Path_5705" data-name="Path 5705" d="M342.86.016c3.162-.322,3.546,4.474.441,4.713-3.08.237-3.477-4.4-.441-4.713" transform="translate(-328.916 0)" fill="#244cb4"/>
  </g>
</svg>
