<svg xmlns="http://www.w3.org/2000/svg" width="137.782" height="28.112" viewBox="0 0 137.782 28.112">
  <g id="Group_11533" data-name="Group 11533" transform="translate(0 -0.001)">
    <rect id="Rectangle_3283" data-name="Rectangle 3283" width="3.419" height="16.257" transform="translate(22.326 6.084)" fill="#244cb4"/>
    <g id="Group_9857" data-name="Group 9857" transform="translate(0 0.001)">
      <g id="Group_9859" data-name="Group 9859">
        <path id="Path_5355" data-name="Path 5355" d="M213.3,26.9h-2.992a.214.214,0,0,1-.214-.214V5.96a.214.214,0,0,1,.214-.214H213.3a.214.214,0,0,1,.214.214V26.687a.214.214,0,0,1-.214.214" transform="translate(-166.724 -4.56)" fill="#244cb4"/>
        <rect id="Rectangle_3284" data-name="Rectangle 3284" width="3.419" height="21.154" transform="translate(60.274 1.186)" fill="#244cb4"/>
        <path id="Path_5356" data-name="Path 5356" d="M144.279,44.716a8.452,8.452,0,1,1,.191-16.9,8.365,8.365,0,0,1,4.774,1.609.215.215,0,0,1,.042.3l-1.691,2.2a.214.214,0,0,1-.3.042,5.2,5.2,0,0,0-3.107-.956,5.246,5.246,0,0,0,.085,10.492,5.191,5.191,0,0,0,3.035-.966.214.214,0,0,1,.294.041l1.7,2.2a.215.215,0,0,1-.041.3,8.37,8.37,0,0,1-4.987,1.627" transform="translate(-107.789 -22.071)" fill="#244cb4"/>
        <path id="Path_5357" data-name="Path 5357" d="M511.631,28.5v1.346a8.475,8.475,0,1,0,0,13.259v1.245a.214.214,0,0,0,.214.214h2.778a.214.214,0,0,0,.214-.214V28.5a.214.214,0,0,0-.214-.214h-2.778a.214.214,0,0,0-.214.214m-5.7,13.226a5.268,5.268,0,1,1,5.68-5.679,5.289,5.289,0,0,1-5.68,5.679" transform="translate(-395.112 -22.221)" fill="#244cb4"/>
        <path id="Path_5358" data-name="Path 5358" d="M110.494,2.089A2.088,2.088,0,1,1,108.407,0a2.088,2.088,0,0,1,2.088,2.088" transform="translate(-84.372 -0.001)" fill="#88ba2a"/>
        <path id="Path_5359" data-name="Path 5359" d="M232.964,44.9l6.779-6.779a.214.214,0,0,0-.151-.365h-3.929a.214.214,0,0,0-.151.063L228.431,44.9a.214.214,0,0,0,0,.3l7.009,7.039a.214.214,0,0,0,.151.063h3.949a.214.214,0,0,0,.151-.365L232.964,45.2a.214.214,0,0,1,0-.3" transform="translate(-181.227 -29.96)" fill="#244cb4"/>
        <path id="Path_5360" data-name="Path 5360" d="M.214,33.273h0c-.118,0-.214-.1-.214.371V7.768c0-.7.1-.8.214-.8H9.189a9.815,9.815,0,0,1,6.181,2.3.21.21,0,0,0,.231.024,42.631,42.631,0,0,1,4.456-2.015.215.215,0,0,1,.277.125l.982,2.6a.212.212,0,0,1-.123.274c-1.1.424-2.2.9-3.268,1.432a.214.214,0,0,0-.083.31,10.969,10.969,0,0,1,1.829,6.091,9.33,9.33,0,0,1-2.444,6.656,6.392,6.392,0,0,1-5.939,2.079C7.5,26,6.262,21.8,7.016,18.27c.666-3.114,2.821-4.869,5.161-6.5a.214.214,0,0,0-.02-.364,6.123,6.123,0,0,0-2.968-.644h-5a.214.214,0,0,0-.214.214V29.511A3.762,3.762,0,0,1,.214,33.273M15,13.545a.215.215,0,0,0-.291-.058c-2.134,1.352-4.053,3.064-4.563,5.453-.37,1.729-.045,4.353,1.837,4.773a3.328,3.328,0,0,0,2.9-1.141,6.161,6.161,0,0,0,1.579-4.506A7.911,7.911,0,0,0,15,13.545" transform="translate(0 -5.531)" fill="#244cb4"/>
        <path id="Path_5361" data-name="Path 5361" d="M418.19,9.626a8.43,8.43,0,0,0-5.588,1.838V5.24a.214.214,0,0,0-.214-.214H409.61a.214.214,0,0,0-.214.214V25.967a.214.214,0,0,0,.214.214h2.778a.214.214,0,0,0,.214-.214V24.722a8.47,8.47,0,1,0,5.588-15.1m.108,13.717a5.268,5.268,0,1,1,4.821-4.821,5.273,5.273,0,0,1-4.821,4.821" transform="translate(-324.885 -3.989)" fill="#244cb4"/>
        <path id="Path_5362" data-name="Path 5362" d="M335.155,35.035a8.473,8.473,0,1,0-8.4,9.624h6.028a.374.374,0,0,0,.374-.374V41.829a.375.375,0,0,0-.374-.374h-5.695q-.164,0-.333,0a5.385,5.385,0,0,1-4.7-2.9.215.215,0,0,1,.192-.311H335.02a.214.214,0,0,0,.213-.213V36.187a8.325,8.325,0,0,0-.079-1.152m-3.991,0h-8.807a.207.207,0,0,1-.187-.265,4.952,4.952,0,0,1,4.047-3.819,4.815,4.815,0,0,1,5.135,3.819.207.207,0,0,1-.187.265" transform="translate(-252.584 -21.995)" fill="#244cb4"/>
        <path id="Path_5363" data-name="Path 5363" d="M602.924,29.374v6.492c-.043,4.665-2.239,5.495-5.161,5.386a4.99,4.99,0,0,1-4.684-5.287V29.374a.146.146,0,0,0-.146-.146h-2.779a.146.146,0,0,0-.146.146v6.791c0,4.675,2.838,8.242,7.512,8.3a7.564,7.564,0,0,0,4.934-1.289c.068,3.11-2.455,4.495-4.817,4.495h-4.574a.146.146,0,0,0-.146.146v2.925a.146.146,0,0,0,.146.146h4.574c4.7,0,8.244-3.2,8.244-10.21L606,29.374a.146.146,0,0,0-.146-.146H603.07a.146.146,0,0,0-.146.146" transform="translate(-468.213 -23.195)" fill="#244cb4"/>
      </g>
    </g>
  </g>
</svg>