<svg xmlns="http://www.w3.org/2000/svg" width="15.473" height="11.578" viewBox="0 0 15.473 11.578">
  <g id="Group_10685" data-name="Group 10685" transform="translate(0)">
    <g id="Group_10684" data-name="Group 10684">
      <path id="Path_5696" data-name="Path 5696" d="M15.472.558A.535.535,0,0,0,15,0L2.283.021a.568.568,0,0,0-.329.332V2.4H.444a.568.568,0,0,0-.434.517C.05,5.442-.071,7.988.072,10.5a1.454,1.454,0,0,0,1.28,1.076H13.674a1.962,1.962,0,0,0,1.8-1.922ZM1.953,10.233c0,.169-.31.384-.475.386S1,10.437,1,10.274V3.391h.951Zm2.4-7.4a.476.476,0,0,1,.4-.423c.928.045,1.971-.093,2.886-.012a.523.523,0,0,1,.558.517,13.519,13.519,0,0,1,0,1.945.456.456,0,0,1-.433.435c-.958.088-2.048-.07-3.021,0A.458.458,0,0,1,4.35,4.9a14.108,14.108,0,0,1,0-2.069m.113,3.461,8.425-.01a.481.481,0,0,1-.041.953H4.578a.482.482,0,0,1-.115-.942M9.548,4.352l3.336-.007a.485.485,0,0,1,.042.946H9.541a.487.487,0,0,1,.007-.939m3.594,4.689a.764.764,0,0,1-.2.11H4.482a.491.491,0,0,1,.137-.964h8.146a.5.5,0,0,1,.377.856M12.8,3.392c-.97.11-2.146-.08-3.138,0A.5.5,0,1,1,9.7,2.4c.969-.1,2.113.078,3.1,0a.63.63,0,0,1,.337.138.5.5,0,0,1-.337.854" fill="#244cb4"/>
    </g>
  </g>
</svg>
