<svg xmlns="http://www.w3.org/2000/svg" width="12.674" height="13.221" viewBox="0 0 12.674 13.221">
  <path id="Path_5690" data-name="Path 5690" d="M2.269,6.577A6.6,6.6,0,0,1,3.66,4.182a.392.392,0,0,1,.421-.105l1.5.533A.78.78,0,0,0,6.61,4.018L6.9,2.458a.39.39,0,0,1,.3-.311,6.726,6.726,0,0,1,2.776,0,.39.39,0,0,1,.3.31l.286,1.56A.782.782,0,0,0,11.6,4.61l1.5-.533a.392.392,0,0,1,.421.105,6.6,6.6,0,0,1,1.391,2.395.388.388,0,0,1-.119.416L13.572,8.02a.776.776,0,0,0,0,1.186l1.214,1.027a.388.388,0,0,1,.119.416,6.6,6.6,0,0,1-1.391,2.395.392.392,0,0,1-.421.105l-1.5-.533a.78.78,0,0,0-1.031.593l-.286,1.56a.39.39,0,0,1-.3.31,6.725,6.725,0,0,1-2.776,0,.39.39,0,0,1-.3-.311l-.285-1.56a.782.782,0,0,0-1.031-.593l-1.5.533a.392.392,0,0,1-.421-.105,6.6,6.6,0,0,1-1.391-2.395.388.388,0,0,1,.119-.416L3.6,9.205a.776.776,0,0,0,0-1.186L2.388,6.993A.388.388,0,0,1,2.269,6.577ZM6.658,8.612A1.929,1.929,0,1,0,8.587,6.684,1.929,1.929,0,0,0,6.658,8.612Z" transform="translate(-2.25 -2.002)" fill="#244cb4"/>
</svg>
