<svg xmlns="http://www.w3.org/2000/svg" width="41.48" height="41.48" viewBox="0 0 41.48 41.48">
  <g id="Group_16566" data-name="Group 16566" transform="translate(-926.52 -1119.764)">
    <path id="Path_5548" data-name="Path 5548" d="M10.583,0H0" transform="translate(951.678 1137.438) rotate(135)" fill="none" stroke="#383838" stroke-linecap="round" stroke-width="2"/>
    <path id="Path_5549" data-name="Path 5549" d="M10.583,0H0" transform="translate(951.679 1144.922) rotate(-135)" fill="none" stroke="#383838" stroke-linecap="round" stroke-width="2"/>
    <path id="Fill-25" d="M.84-278.42a20.74,20.74,0,0,0,20.74-20.74A20.74,20.74,0,0,0,.84-319.9,20.74,20.74,0,0,0-19.9-299.16,20.74,20.74,0,0,0,.84-278.42Zm0-39.224A18.555,18.555,0,0,1,19.324-299.16,18.555,18.555,0,0,1,.84-280.676,18.555,18.555,0,0,1-17.644-299.16,18.555,18.555,0,0,1,.84-317.644Z" transform="translate(946.42 1439.664)" fill="#f2f2f2"/>
  </g>
</svg>
